<svg width="162" height="304" viewBox="0 0 162 304" fill="none" xmlns="http://www.w3.org/2000/svg">
<g filter="url(#filter0_d_36_57)">
<path d="M103.799 2.16386C111.461 -0.557014 124.405 2.85419 136.334 11.435C151.464 22.318 159.232 37.3937 153.684 45.1067C152.764 46.3862 151.534 47.3801 150.055 48.1026C149.845 65.9898 143.871 89.4583 132.426 113.311C130.843 116.609 129.198 119.82 127.506 122.937C138.884 138.335 146.851 162.138 148.226 189.167C149.382 211.905 145.665 232.844 138.648 248.727C131.376 272.452 109.747 290.252 83.3458 291.595C60.3253 292.766 39.6437 281.121 28.3327 262.962C17.4558 247.276 9.75079 222.705 8.33032 194.781C7.89446 186.213 8.0813 177.899 8.8135 170.007C8.26486 158.531 8.87141 146.09 10.7929 133.221C14.9219 105.567 24.2814 81.5761 35.7948 65.8856C35.9068 65.6496 36.017 65.4123 36.1303 65.1763C54.2036 27.5099 82.328 2.16652 103.799 2.16386Z" fill="#D1ABDC"/>
<path d="M14.3506 244.392C8.44593 229.03 5.22324 212.022 4.33804 194.985C3.90125 186.501 4.05528 177.99 4.8468 169.639L4.83431 170.197C4.54978 163.975 4.61853 157.817 4.97088 151.792C5.20352 148.057 5.47902 148.335 5.58717 147.291C5.90633 144.446 5.76339 142.7 6.01149 140.626C6.33808 137.927 6.70779 135.285 7.12072 132.673C8.25345 125.532 9.69072 118.628 11.6018 111.588C14.4212 101.721 13.9632 106.645 15.1658 103.305C17.6792 96.8326 14.8171 102.104 15.4427 99.4291C18.055 91.8868 21.2635 84.4379 25.1212 77.3831C24.2965 79.1628 23.507 80.9692 22.7508 82.7912C24.2558 79.6369 26.7328 75.3049 24.3273 80.6249C24.9698 79.5075 25.5981 78.4849 26.2921 77.3467C26.072 76.8331 29.1185 71.4303 29.2525 70.8491C29.3432 70.2351 27.5845 73.2614 27.5903 73.2361C27.4834 73.0138 30.6684 67.7955 33.4942 64.1975L33.2168 64.6623C33.3304 64.4377 33.4487 64.198 33.5746 63.95C34.5153 62.1034 35.2785 60.7046 35.4311 60.425C36.7445 58.05 36.0942 60.3847 37.125 58.3345C38.9352 54.8387 36.7891 56.6362 40.5691 52.6347C41.2567 50.5837 41.5426 50.5275 42.9649 48.2466C43.1527 47.9475 42.7962 48.0502 42.872 47.9143C44.8721 44.3506 43.605 47.2608 43.6366 47.2574C44.1888 47.1545 46.3798 43.3913 46.9433 42.6539C53.8648 33.4325 59.4308 27.0068 68.3473 18.8052C70.2266 16.9942 76.3745 11.8211 78.5833 10.528C80.6966 9.19979 79.7618 10.1953 80.9388 9.61181C82.3065 7.90158 84.0242 6.65339 88.5267 5.12348C89.9497 3.9296 89.8788 4.35044 93.0466 3.13943C95.6526 2.11487 100.574 0.468146 103.798 1.10545C100.162 1.18141 100.536 1.39215 96.6271 2.33521C95.1285 2.16246 82.4866 7.92773 83.8232 8.18167C84.395 8.13554 88.3327 5.8409 88.5284 5.85964C89.5823 5.72961 87.4254 7.08061 85.4278 8.01868C85.8902 7.699 86.4494 7.33744 86.953 7.01744C82.3213 9.0189 86.1124 8.64582 82.1497 9.45402C81.6669 9.56386 81.7354 9.32348 80.9825 9.59684C80.8844 9.74118 81.7854 9.37947 81.1058 9.84413C80.4067 10.3177 78.8994 10.932 78.8614 11.2989C78.7872 11.821 81.5971 9.774 81.8393 9.67761C81.8404 9.67408 81.8414 9.67054 81.8425 9.66701C83.9042 8.64521 79.8362 11.198 79.6931 11.3852C78.6154 12.4275 79.5381 12.0103 77.8602 13.4633C76.9019 14.2833 74.3161 16.2113 73.4376 17.0094C72.5603 17.791 74.0858 16.77 73.5055 17.3059C72.9301 17.8372 72.0655 18.3841 71.4092 19.0263C71.1258 19.3042 71.2827 19.4507 71.1442 19.5838C69.6665 21.026 70.3573 19.7959 69.0072 21.0833C68.114 21.9196 65.5227 25.0848 67.5962 23.2039C66.6755 24.1666 65.755 25.1469 64.8665 26.1292C65.4913 25.5646 66.1346 24.9649 66.77 24.4318C64.9166 26.1616 64.4155 27.2481 63.3715 28.4276C62.3354 29.6073 61.0636 30.3895 60.1018 31.8559C58.0412 34.9807 63.8419 27.8498 64.7424 27.1341C65.0703 26.8294 64.1497 28.3176 63.989 28.5125C63.2451 29.3863 62.1356 30.2688 61.5626 30.948C59.4963 33.4074 58.5003 35.1535 56.6929 37.6026C50.4617 45.9791 43.9587 57.2033 39.764 66.1612C39.6636 66.3721 39.5647 66.5775 39.4674 66.7775C39.3631 66.9913 39.2514 67.2234 39.1296 67.4681L38.7708 68.0694C37.0915 70.2686 35.8857 71.6452 35.1362 72.8336C33.1365 76.084 33.1881 76.6624 31.5986 79.5876C29.233 83.9463 26.1053 90.2547 24.5442 94.1462C23.4437 96.8265 22.8654 99.4031 22.6253 100.117C19.2259 110.017 16.3179 122.483 14.9751 131.079C14.8072 132.111 14.6473 133.002 14.4984 133.775C14.0679 136.016 13.7267 137.219 13.6526 137.846C13.2498 141.461 13.6601 140.526 13.3245 143.451C13.1534 145.031 12.8501 145.303 12.8192 145.514C12.5641 147.376 12.9067 147.779 12.8152 149.237C12.3945 156.211 12.1408 162.985 12.39 169.836L12.3788 170.338C12.2355 171.717 12.1132 173.105 12.0143 174.5C11.9719 175.101 11.8123 175.037 11.7966 175.428C11.74 177.106 12.0383 176.341 11.9733 178.09C11.8506 181.73 11.7592 185.47 11.8076 189.336C11.8128 189.719 11.6049 189.896 11.6297 190.773C11.6562 191.651 11.8767 192.309 11.9273 193.686C11.9388 193.99 11.9495 194.293 11.9598 194.597C12.0717 197.885 12.1241 201.169 12.4883 204.644C12.5549 205.273 12.8947 206.024 13.0064 206.959C13.3465 209.905 13.7936 214.283 14.2567 216.784C15.7583 225.045 17.8909 232.491 20.5782 239.862C21.2094 241.59 21.5962 243.195 21.9547 244.084C22.7731 246.081 22.3444 244.501 23.2079 246.5C25.4422 251.584 28.0537 256.499 31.1582 261.002L31.2512 261.144C37.5459 271.336 47.1788 279.527 58.4136 284.059C64.8071 286.735 73.2036 288.104 79.8596 288.123C81.4997 288.143 82.3427 288.216 83.1766 288.268C83.7529 288.301 84.3182 288.319 85.1199 288.254C88.6223 287.914 89.2022 287.439 92.791 286.658C95.6434 286.003 98.9939 285.393 101.841 284.219C104.673 283.024 105.798 282.088 108.826 280.341C111.316 278.898 114.746 276.753 117.133 274.696C125.554 267.558 131.799 258.035 134.936 247.59L135.096 247.158C142.224 230.594 144.846 212.041 144.621 193.508C144.601 192.145 144.56 190.759 144.498 189.356C144.092 179.863 142.66 169.752 140.626 160.403C140.401 159.395 141.172 160.832 140.239 157.65C139.722 155.946 138.758 153.646 137.411 149.783C134.355 141.103 130.366 132.469 124.893 124.867L123.662 123.162L124.651 121.387C126.373 118.291 128.028 115.145 129.601 111.956C135.052 100.906 139.588 89.3307 142.623 77.6813C145.134 67.984 146.699 57.9058 146.604 48.0622L146.653 45.8984L148.54 45.0019C149.526 44.4803 150.272 43.819 150.796 43.0292C153.23 39.5813 150.8 32.895 147.298 27.9491C143.745 22.8136 139.052 18.3638 134.042 14.6214C125.154 8.1523 114.746 2.82971 105.18 3.74341C103.798 3.98683 104.157 2.87549 105.017 2.36265C105.906 2.32195 106.731 2.4048 107.632 2.52356C108.648 1.33336 108.54 1.3707 112.839 1.8592C115.484 2.29003 113.44 1.49537 114.885 1.58744C116.819 1.48365 125.43 3.98074 123.514 4.1447C124.076 4.22798 124.585 4.30449 125.133 4.40214C129.286 6.13267 133.171 8.27429 136.836 10.7367C138.414 11.7979 139.948 12.9204 141.437 14.11C142.291 14.7975 142.486 14.6497 143.353 15.3894C145.659 17.3872 147.241 19.2701 149.241 21.6997C150.316 23.0469 150.693 23.0528 151.961 24.9452C153.175 26.879 152.867 26.9755 154.637 29.5799C154.217 27.4364 157.903 36.0845 157.24 39.8162C157.316 40.2383 157.122 44.3249 155.44 46.3694C155.357 46.4847 155.274 46.5932 155.192 46.6946C154.28 47.8433 152.74 49.0572 150.92 49.8746L152.026 48.1258C151.981 49.2732 151.936 50.4981 151.934 51.7377C151.929 53.1826 152.195 54.0882 152.077 55.6536C151.992 56.7518 151.566 58.0365 151.384 59.413C151.213 60.7942 151.005 63.7915 150.912 64.3386C150.602 66.3002 150.761 64.1098 150.525 65.4418C149.387 71.8977 147.452 79.2268 145.686 85.4115C145.471 86.1687 146.022 85.1984 145.999 85.299C144.678 90.5168 145.229 87.6796 144.582 88.9938C144.013 90.2854 140.584 99.9474 140.894 100.151C140.29 100.256 139.816 102.513 139.599 103.072C138.771 105.22 138.524 104.631 137.772 106.734C137.491 107.508 138.411 106.164 138.051 106.97C137.158 108.96 135.906 110.547 134.626 113.139C134.435 113.526 134.399 113.788 134.272 114.197C134.193 114.449 134.078 114.757 133.868 115.183C133.332 116.309 130.721 120.834 132.229 118.899C130.765 121.084 130.424 121.907 129.362 123.944L129.205 121.681C129.504 122.075 129.838 122.526 130.217 123.068C130.759 123.847 131.161 125.045 132.326 126.687C132.717 127.241 132.999 127.042 133.536 127.924C134.749 129.936 135.515 132.033 136.824 134.684C139.267 139.644 141.692 145.026 143.376 150.53C143.828 152.03 143.39 151.755 144.033 153.928C144.131 154.243 145.169 156.79 145.527 158.319C145.77 159.237 146.673 164.035 146.836 165.007C147.138 166.602 147.517 166.831 147.62 167.716C147.9 170.291 147.06 168.33 148.241 171.277C148.042 172.341 148.348 174.13 147.974 174.763C148.616 175.734 148.325 177.148 148.722 179.156C149.118 181.155 150.23 182.746 149.233 183.33C149.456 184.267 149.945 188.305 149.983 188.996C149.985 189.023 149.987 189.051 149.989 189.077C150.116 190.988 149.789 189.968 149.886 191.469C149.901 191.737 150.095 191.451 150.124 193.173C150.198 194.305 150.119 202.596 150.021 203.09C149.473 208.719 149.967 200.008 149.709 198.788C149.767 198.574 149.825 198.361 149.882 198.131C149.977 195.639 149.533 197.059 149.425 198.185C149.319 199.31 149.476 201.418 149.297 202.351C149.207 202.816 148.687 202.505 148.787 201.105C148.584 202.601 148.463 200.549 148.293 201.138C148.146 201.79 147.75 208.502 148.007 208.56C148.11 207.304 148.192 205.739 148.261 204.469C148.84 202.809 150.417 208.01 149.237 212.633C148.359 215.954 148.649 210.36 148.064 218.366C148.256 217.147 148.435 216.114 148.586 215.007C148.983 214.932 148.348 216.692 148.34 217.634C148.341 218.091 148.974 215.368 148.748 217.775C147.916 219.76 148.244 221.42 147.611 224.86C147.695 223.887 147.768 222.917 147.831 221.943C146.44 227.662 148.636 214.221 146.442 225.402C146.686 224.057 146.93 222.714 147.126 221.35C146.819 221.972 146.407 220.83 146.188 221.394C145.614 222.878 145.395 225.171 144.974 227.019C144.79 227.831 144.741 227.292 144.725 227.361C144.469 228.468 144.752 228.268 144.546 229.248C144.3 230.477 143.175 233.932 143.031 234.498C142.687 235.981 143.812 233.661 143.803 233.811C143.771 234.812 143.037 236.669 143.344 236.652C144.652 232.046 147.601 218.533 145.45 230.877C146.679 227.614 147.163 228.727 145.975 233.616C144.926 237.639 145.384 234.981 144.513 236.977C144.432 237.241 142.585 242.473 142.647 242.796C142.283 242.431 141.279 243.978 141.238 242.681C141.235 242.497 142 240.379 141.375 240.995C141.064 241.306 140.291 242.213 140.117 241.959C140.126 242.445 140.143 242.966 140.148 243.463C139.054 246.474 138.644 246.935 137.721 248.318L137.679 248.431C137.646 248.495 137.612 248.561 137.577 248.629C137.61 248.62 137.685 248.546 137.772 248.459L137.81 248.357C138.077 248.148 138.452 247.85 138.192 248.526L138.172 248.582C138.117 248.795 138.014 249.105 137.84 249.539C137.788 249.66 137.57 249.71 137.048 250.897C135.962 253.288 135.681 253.734 135.848 251.678C134.175 256.769 133.061 257.54 130.412 262.293C131.611 261.772 132.614 260.06 134.609 255.435C134.866 255.311 135.072 255.291 135.333 255.158C132.041 261.076 133.542 258.065 131.987 261.592C131.631 262.475 128.706 266.548 130.077 265.466C130.423 265.223 132.125 262.582 132.083 262.98C132.102 263.072 130.041 266.31 129.776 266.537C126.664 269.473 131.261 263.557 123.837 272.366C123.621 272.599 123.704 272.836 123.287 273.301C122.496 274.17 122.305 273.993 121.587 274.752C120.867 275.507 120.005 276.743 118.579 277.49C115.995 278.828 121.026 274.386 123.253 272.388C123.393 271.68 119.828 275.23 115.483 278.274C111.189 281.395 106.13 283.852 105.546 284.142C100.454 286.768 109.055 282.674 109.516 282.469C109.729 282.442 110.235 283.505 111.944 281.601C112.441 281.046 109.732 282.35 111.198 281.325C112.649 280.287 112.225 280.935 112.348 280.888C112.772 280.723 114.284 279.559 114.509 279.451C118.006 277.773 118.415 278.943 113.309 280.509C111.658 282.035 116.228 279.688 114.061 281.435C111.389 283.566 108.915 284.244 108.538 284.421C103.854 286.418 109.504 284.622 103.708 286.943C100.451 288.112 108.308 284.565 101.006 287.505C94.7695 289.63 98.2025 288.729 97.9304 289.47C97.8631 289.634 94.38 290.842 99.1643 289.351C99.2516 289.16 99.4418 288.883 99.6949 288.647C100.885 288.381 103.075 288.384 103.698 288.153C106.715 287.032 106.379 286.694 108.294 286.294C106.851 286.428 108.962 285.739 109.635 285.241C112.094 283.37 108.607 285.374 114.687 282.174C113.808 282.465 112.998 282.695 112.142 282.931C112.831 282.502 113.516 282.057 114.188 281.601C115.509 281.406 119.003 278.745 116.108 281.515C120.094 278.859 121.408 277.373 121.91 276.386C122.003 276.194 122.509 275.69 123.108 275.105C122.911 275.13 122.515 275.005 122.579 274.882C123.155 273.802 124.894 272.972 124.65 273.596C125.068 273.184 125.395 272.855 125.512 272.74C126.25 272.006 125.028 273.657 125.664 273.096C125.888 272.922 127.8 270.685 127.897 270.692C128.538 270.76 125.295 274.421 131.534 266.849C131.243 266.361 128.606 270.032 128.843 268.742C129.115 267.397 131.266 265.851 130.925 264.948C131.145 264.852 131.284 264.837 131.502 264.771C133.34 261.33 133.841 261.573 134.57 260.602C136.103 258.761 140.206 248.854 135.849 257.421C136.405 256.138 136.955 254.821 137.424 253.512C138.504 253.621 138.098 254.239 139.874 249.103L139.821 249.246C139.98 248.904 140.151 248.533 140.335 248.13C140.947 246.783 141.604 246.516 141.565 244.941C142.069 245.345 143.234 241.086 143.407 240.719C144.741 238.365 142.08 247.881 140.491 248.584C140.431 248.949 140.359 249.224 140.277 249.447L140.35 249.249C140.143 250.097 139.752 250.299 139.326 251.689C138.498 254.242 138.464 254.656 136.773 257.38C136.143 260.569 141.635 246.046 138.878 255.088C137.698 259.019 131.991 271.51 120.479 280.775C109.275 290.392 93.1537 294.911 83.5287 295.19C80.9887 295.341 78.886 295.319 77.3628 295.267C53.7825 293.427 41.2267 285.805 27.8897 269.332C27.4882 268.79 26.2513 267.11 24.9863 265.046L25.093 265.208C22.148 261.003 19.266 255.124 20.6887 256.872C20.961 257.264 24.5262 262.891 22.1135 257.697C22.4136 258.859 20.6133 256.013 20.47 255.776C16.9656 250.305 18.214 253.812 14.3506 244.392ZM12.3272 214.48C14.5129 227.017 13.2155 217.746 14.672 220.142C14.3476 218.552 14.0496 216.967 13.7745 215.373C13.787 215.803 13.8003 216.227 13.8158 216.656C13.8162 216.658 13.8165 216.659 13.8168 216.661C13.3164 215.946 12.8185 215.212 12.3272 214.48ZM69.5977 22.1478C69.3304 22.5772 69.0689 23.0057 68.7734 23.468C67.5628 24.5847 66.3597 25.7483 65.1989 26.9167C65.2714 26.7125 65.3389 26.5127 65.4121 26.3091C66.7744 24.8894 68.1638 23.5113 69.5977 22.1478ZM124.361 271.01C126.202 269.491 125.6 269.253 127.76 266.983C127.151 266.999 126.527 267.045 125.915 267.06C124.5 268.904 124.286 269.432 122.46 271.192C122.774 271.085 123.093 270.971 123.403 270.864C123.67 270.531 123.948 270.173 124.2 269.847C124.973 269.649 122.218 272.706 124.356 271.017C124.358 271.014 124.359 271.012 124.361 271.01ZM136.503 250.4C136.662 250.008 136.973 249.222 137.289 248.311L137.348 248.153C138.197 246.429 139.119 244.228 139.159 243.748C139.29 242.306 137.659 246.527 136.914 247.961L136.835 248.172C136.62 248.771 136.531 248.933 136.701 248.131L136.786 247.905C136.966 247.367 137.327 246.38 137.871 244.755C137.767 244.765 137.7 244.687 137.614 244.653C137.186 245.675 136.744 246.685 136.284 247.683L136.177 247.97C135.938 248.71 135.685 249.445 135.416 250.177C135.796 250.203 136.116 250.387 136.503 250.4ZM27.1419 257.589C27.557 258.335 28.7759 260.225 29.9972 261.807L30.052 261.891C31.5115 264.003 32.9707 265.604 32.1911 264.113C31.9898 263.717 31.1818 262.759 30.3648 261.696L30.3 261.598C29.4451 260.598 28.567 259.494 28.1648 258.823C27.6486 257.953 28.5181 258.758 27.3815 257.102C27.3015 257.252 27.1911 257.382 27.1456 257.593C27.1443 257.592 27.1431 257.59 27.1419 257.589ZM23.6502 255.33C24.6769 257.106 25.7991 258.877 26.9647 260.582C26.4547 259.117 24.7688 256.689 25.1484 256.266C25.461 256.74 25.7725 257.2 26.0896 257.659C26.2063 258.085 26.328 258.513 26.4491 258.933C27.6254 260.27 27.1474 259.318 28.8944 262.077C28.4669 259.966 28.5546 259.558 25.119 255.101C26.013 255.803 26.7395 254.293 24.4521 252.038C24.02 251.608 25.01 253.81 25.0013 253.842C24.8464 254.344 24.0131 253.271 23.8877 253.786C23.8271 254.019 24.5312 255.327 24.4486 255.627C24.4036 255.773 23.4545 254.664 23.6502 255.33ZM23.471 250.857C23.9467 251.317 23.4855 249.177 22.6424 247.542C21.324 244.963 22.6822 249.353 23.471 250.857ZM69.6053 22.14C69.6027 22.1426 69.6002 22.1452 69.5977 22.1478C69.5986 22.1462 69.5996 22.1446 69.6006 22.143C69.6022 22.142 69.6037 22.141 69.6053 22.14ZM133.788 256.299C134.266 254.888 135.122 252.881 134.776 252.915C135.101 252.275 135.415 251.623 135.717 250.97C135.629 250.945 135.538 250.927 135.451 250.902C134.662 252.896 133.765 254.84 132.761 256.729C133.099 256.597 133.43 256.481 133.788 256.299ZM142.226 233.843C142.969 231.18 141.972 233.315 141.935 232.678C141.904 232.041 142.645 229.7 142.295 229.914C141.908 231.489 141.474 233.111 141.016 234.687C141.433 234.357 141.82 234.151 142.227 233.838C142.227 233.84 142.226 233.841 142.226 233.843ZM10.8114 162.421C10.7391 164.299 10.3914 163.544 10.8599 167.244C10.8598 167.241 10.8598 167.238 10.8597 167.236C10.9995 163.696 11.2348 159.169 11.1332 155.269C10.7181 157.64 10.9458 159.467 10.8114 162.421ZM119.091 274.855C118.677 275.568 121.52 273.298 121.903 272.546C122.552 271.381 119.748 273.821 119.091 274.855ZM23.5526 87.5499C24.0409 84.5894 20.9142 89.2514 19.2393 94.8335C19.0864 95.3123 20.6561 91.9107 20.3985 92.9985C20.3704 93.1029 19.6188 95.0167 19.5488 95.5242C19.4743 96.0356 19.891 95.6236 19.7041 96.4371C19.3697 97.8589 17.9864 100.849 17.8835 101.962C17.8666 102.109 18.8243 100.281 18.8791 100.169C19.737 98.2626 20.0206 96.233 20.1309 95.9279C20.6929 94.3743 20.9317 94.7239 21.1543 94.362C21.5753 93.6789 21.9452 92.334 21.9934 92.2463C23.2009 90.027 20.9999 95.3228 20.8728 96.0982C20.4776 98.1721 21.3826 96.4534 19.9459 101.219C19.8065 101.68 18.0311 107.025 20.6253 100.397C17.0659 113.89 23.1646 93.8796 24.1353 91.8118C24.4574 90.8116 23.5549 92.1558 23.6597 91.5133C23.8969 90.0327 24.8348 87.7339 24.3157 87.7477C23.2072 87.7879 22.5081 91.0659 21.5367 93.1138C21.4226 92.8146 21.2607 92.651 21.2282 92.1616C21.2245 92.8863 23.4959 87.7576 23.5544 87.5507C23.5538 87.5504 23.5532 87.5502 23.5526 87.5499ZM13.9656 121.807C13.0364 124.838 13.6971 124.741 12.8238 127.511C12.9301 130.116 13.7756 125.174 13.9341 124.608C14.5934 122.023 15.1777 122.214 15.5784 119.516C15.0215 120.348 14.5019 121.019 13.9656 121.807ZM21.7871 95.5962C21.3496 97.6699 22.6623 94.1513 22.7822 94.0373C23.9353 92.7072 19.95 103.196 21.7871 95.5962ZM32.9471 268.366C33.6002 269.208 33.4088 268.494 34.0741 269.156C34.7222 269.829 36.6989 272.359 36.7933 272.16C36.8388 271.978 33.3198 267.358 37.32 271.572C37.2611 271.357 37.3644 271.35 37.3687 271.215C36.2772 270.062 35.2245 268.853 34.2308 267.616C34.5386 268.486 34.874 269.382 35.2149 270.215C34.4323 269.695 34.3444 269.098 34.3138 269.062C34.3135 269.063 34.3133 269.063 34.313 269.063C33.2137 267.796 31.5124 266.451 32.9471 268.366ZM9.72728 188.978C8.95842 188.673 9.86245 191.176 10.0002 192.201C10.1306 193.228 9.91952 194.658 10.2207 194.11C10.3567 192.436 9.80703 189.013 9.7263 188.978C9.72663 188.978 9.72695 188.978 9.72728 188.978ZM11.1697 138.7C11.0431 141.346 11.279 140.947 10.7373 144.138C10.9321 144.03 11.131 143.924 11.3232 143.818C11.5823 141.274 11.0282 141.392 11.5948 138.472C11.6915 137.994 11.9794 139.079 12.1246 136.889C11.8156 137.492 11.4836 138.1 11.1697 138.7ZM10.6915 151.777C10.8416 148.764 9.51696 146.25 9.83996 151.878C9.89602 152.713 10.5953 154.048 10.6915 151.777ZM19.1417 244.167C21.0676 248.959 19.0293 243.445 18.7969 242.109C23.4712 253.136 18.1458 240.901 18.5738 239.483C17.8811 238.195 16.5383 235.734 17.3942 238.672C17.7598 239.888 17.8219 239.373 17.8457 239.446C18.5879 241.67 18.1326 241.535 19.1417 244.167ZM15.13 116.456C15.0958 116.647 15.4157 116.411 15.3229 117.024C15.2285 117.637 14.7407 118.966 14.8653 119.134C14.9857 119.305 15.7359 116.594 15.8335 115.735C15.9273 114.869 15.4473 114.722 15.13 116.456ZM10.864 135.835C10.7028 138.421 12.2019 134.362 12.2884 133.816C12.3062 133.686 12.3223 133.565 12.3369 133.452C12.6266 131.25 12.26 132.107 11.815 133.374C11.4239 134.488 10.9899 135.919 10.864 135.835ZM13.6908 233.287C16.0104 239.16 15.3793 234.507 14.8194 230.632C14.584 230.166 14.347 229.682 14.1181 229.215C15.3452 231.31 16.9513 235.09 14.1195 226.446C15.2117 231.305 14.0132 227.315 13.973 227.288C12.6985 227.038 15.1864 234.067 13.6892 233.281C13.6897 233.283 13.6903 233.285 13.6908 233.287ZM17.5246 108.423C18.2289 105.815 20.2589 99.0791 18.7599 102.044C18.3077 104.166 17.897 106.292 17.5246 108.423ZM87.7328 292.157C90.0114 292.162 92.0858 291.818 94.8041 291.159C92.259 291.315 93.869 290.909 94.6608 290.618C95.8656 290.178 92.8624 290.893 92.8457 290.85C92.8181 290.439 94.7314 290.053 90.3616 290.863C91.4248 290.548 92.4569 290.209 93.4952 289.841C90.2004 290.52 89.3586 290.345 87.2271 290.301C89.3579 290.795 86.6214 290.713 84.1804 291.241C82.9464 291.514 86.5614 292.182 87.7413 292.156C87.7385 292.156 87.7357 292.157 87.7328 292.157ZM15.5366 239.538C15.8782 240.102 16.2541 240.605 16.6154 241.139C16.8624 241.773 17.114 242.409 17.3727 243.042C17.2897 243.164 17.1965 243.276 17.1232 243.41C17.4154 244.261 17.4464 243.872 17.5581 244.115C17.5575 244.115 17.5569 244.115 17.5563 244.115C19.1889 247.603 19.8074 249.024 20.768 251.91C21.1024 251.748 21.4369 251.586 21.7714 251.424C21.4494 250.84 21.129 250.242 20.815 249.642C20.4853 249.403 20.1555 249.16 19.8265 248.914C19.6064 248.154 19.3999 247.405 19.1976 246.644C18.8865 246.094 18.5327 245.433 18.2655 244.957C18.0633 241.692 20.0682 248.484 20.5352 248.352C20.7569 248.291 18.0658 241.773 17.589 240.858C17.5135 240.727 17.307 242.442 16.8042 239.853C16.7327 239.445 18.2477 238.782 16.0911 236.567C15.7865 236.248 15.2194 237.892 15.5366 239.538ZM26.4535 263.212C25.9848 261.854 26.5285 262.493 27.3478 263.645L27.3154 263.595C28.7835 265.96 31.6347 270.188 29.5736 266.407C31.0485 267.611 30.8238 267.327 30.1253 265.588C30.064 265.437 30.9021 266.384 30.8555 266.285C30.0483 264.774 28.8474 263.122 29.2123 262.875C29.1359 262.767 29.0613 262.66 28.9875 262.554L28.9667 262.522C28.7751 262.274 28.588 262.027 28.3928 261.767C29.1257 263.574 27.1782 261.229 26.2611 260.396C25.8372 260.02 26.4646 261.103 26.1032 260.791C25.9627 260.673 25.1384 259.143 24.9798 259.151C24.6271 259.192 24.7953 260.364 25.6202 262.08C25.62 262.08 25.6197 262.08 25.6194 262.08C25.8912 262.459 26.1714 262.835 26.4535 263.212ZM7.36936 180.572C7.98666 179.905 8.22138 177.202 8.37562 182.427C8.49694 182.171 8.61803 181.908 8.7405 181.653C8.75063 180.774 8.76648 179.923 8.79134 179.032C7.13484 176.27 9.4618 171.476 8.00955 174.537C7.8513 174.871 7.87834 176.976 7.63757 174.885C7.63707 174.888 7.63657 174.89 7.63607 174.893C7.57765 177.792 7.7776 178.16 7.36936 180.572ZM8.272 199.903C9.54779 204.499 8.94204 198.058 8.60231 194.768C8.44863 193.387 8.30269 192.559 8.23673 193.344C8.23135 193.411 8.27048 193.991 8.32335 194.782C8.44985 196.822 8.73032 200.241 8.272 199.903ZM7.77974 146.469C7.52231 149.463 8.1988 149.704 8.45588 149.42C8.71504 149.135 8.62225 147.054 8.68451 146.791C8.87988 145.934 8.81533 147.779 9.07751 146.668C9.1464 146.297 9.88241 141.153 9.89601 140.917C9.88298 139.585 9.11791 141.446 9.09693 141.064C9.02279 139.811 9.51266 138.18 9.26613 137.788C8.73599 136.941 9.00888 140.135 8.96812 140.659C8.82444 142.247 8.48894 142.072 8.29925 143.257C8.11296 144.44 8.16435 145.231 8.05203 146.279C8.01492 146.629 7.79439 146.318 7.77974 146.469ZM8.64499 156.425C8.2248 153.288 7.46277 160.878 7.6223 161.791C7.9733 164.44 8.81081 157.914 8.64499 156.425ZM22.7199 253.7C21.0813 251.32 23.8605 257.399 25.034 258.937C24.9581 258.564 23.2512 254.519 22.7199 253.7ZM13.208 231.605C14.0473 234.109 13.8627 230.529 13.3124 228.422C12.4666 227.319 12.8624 228.456 13.2139 229.849C13.5688 231.237 12.5729 229.654 13.208 231.605ZM13.6079 114.509C13.4153 115.052 11.8875 124.066 13.1997 118.984C13.2747 118.593 14.7035 112.38 14.7738 111.891C14.8595 110.905 13.9789 113.097 13.6079 114.509ZM9.50303 219.472C10.2335 220.753 10.5124 222.098 10.7946 220.73C10.7942 220.728 10.7938 220.727 10.7934 220.725C11.6775 224.133 10.6365 224.529 10.828 225.273C11.5308 227.853 11.7257 225.209 12.3758 226.762C11.2311 223.055 12.0193 224.012 11.4369 221.137C11.3037 220.49 10.482 217.969 10.2169 217.617C9.94702 217.272 9.59608 218.719 9.50303 219.472ZM17.0378 102.055C15.915 104.947 15.8498 107.866 17.2138 103.824C17.8979 101.852 17.7293 100.305 17.0378 102.055ZM140.577 247.208C140.211 247.566 139.836 247.942 139.452 248.327C139.862 247.259 140.249 246.184 140.616 245.109C140.349 245.966 140.066 246.831 139.77 247.69C140.658 245.747 141.357 244.95 140.579 247.202C140.578 247.204 140.578 247.206 140.577 247.208ZM147.771 172.035C147.813 171.053 146.897 169.293 146.892 169.54C146.866 171.366 147.712 173.39 147.771 172.035ZM23.1577 258.304C24.9264 261.461 24.4649 258.829 23.4549 256.891C23.9536 258.155 22.1833 256.493 23.1577 258.304ZM149.709 198.788C149.623 199.107 149.535 199.428 149.446 199.784C149.578 198.662 149.655 198.465 149.709 198.788ZM12.4279 115.721C12.2182 116.229 11.2674 120.153 11.2554 120.705C11.2116 121.847 12.3825 118.892 12.647 117.062C12.6745 116.859 12.6262 115.213 12.4259 115.73C12.4266 115.727 12.4273 115.724 12.4279 115.721ZM142.669 242.813C142.658 242.816 142.651 242.81 142.647 242.796C142.654 242.803 142.663 242.805 142.669 242.813ZM140.947 100.138C140.924 100.153 140.906 100.159 140.894 100.151C140.91 100.148 140.93 100.138 140.947 100.138ZM6.94698 143.651C5.89098 144.906 6.13398 148.055 6.79165 145.644C6.82587 145.509 6.91248 143.976 6.94698 143.651Z" fill="#4D1C61"/>
</g>
<defs>
<filter id="filter0_d_36_57" x="0.0981445" y="0.962891" width="161.222" height="302.343" filterUnits="userSpaceOnUse" color-interpolation-filters="sRGB">
<feFlood flood-opacity="0" result="BackgroundImageFix"/>
<feColorMatrix in="SourceAlpha" type="matrix" values="0 0 0 0 0 0 0 0 0 0 0 0 0 0 0 0 0 0 127 0" result="hardAlpha"/>
<feOffset dy="4"/>
<feGaussianBlur stdDeviation="2"/>
<feComposite in2="hardAlpha" operator="out"/>
<feColorMatrix type="matrix" values="0 0 0 0 0 0 0 0 0 0 0 0 0 0 0 0 0 0 0.25 0"/>
<feBlend mode="normal" in2="BackgroundImageFix" result="effect1_dropShadow_36_57"/>
<feBlend mode="normal" in="SourceGraphic" in2="effect1_dropShadow_36_57" result="shape"/>
</filter>
</defs>
</svg>
