<svg width="157" height="304" viewBox="0 0 157 304" fill="none" xmlns="http://www.w3.org/2000/svg">
<g filter="url(#filter0_d_36_58)">
<path d="M63.4807 1.73954C56.0031 -1.45362 42.8714 1.14463 30.4304 8.96656C14.6522 18.8868 5.96081 33.4498 11.0179 41.4931C11.0696 41.5752 11.1252 41.6545 11.1792 41.7346C8.65556 60.2041 12.694 86.1043 23.4807 112.716C25.2066 116.974 27.0442 121.098 28.973 125.07C18.3026 139.78 10.2726 161.201 7.49949 185.614C4.9299 208.235 7.33615 229.365 13.3511 245.654C19.1314 269.786 39.6118 288.898 65.8783 291.882C88.7807 294.483 110.146 284.149 122.566 266.73C134.399 251.751 143.618 227.706 146.774 199.925C147.743 191.4 148.074 183.091 147.834 175.168C149.096 163.749 149.265 151.294 148.148 138.331C145.748 110.473 137.9 85.946 127.386 69.5693C127.289 69.3268 127.193 69.083 127.095 68.8405C111.401 30.1228 84.9092 3.07927 63.4807 1.73954Z" fill="#D1ABDC"/>
<path d="M138.075 248.19C144.681 233.466 148.838 217.012 150.746 200.376C151.71 191.939 152.087 183.435 151.817 175.048L151.795 175.606C152.49 169.198 152.804 162.832 152.808 156.592C152.796 152.863 152.504 153.121 152.458 152.078C152.308 149.227 152.555 147.501 152.43 145.421C152.277 142.913 152.084 140.449 151.852 138.012C151.148 130.637 150.112 123.504 148.591 116.199C146.372 106.214 146.532 111.141 145.533 107.746C143.416 101.157 145.953 106.569 145.491 103.873C143.338 96.2078 140.59 88.6131 137.166 81.3616C137.883 83.1861 138.558 85.0222 139.205 86.8848C137.895 83.6596 135.684 79.201 137.763 84.6376C137.188 83.4832 136.622 82.4282 136 81.259C136.249 80.7551 133.538 75.2051 133.439 74.617C133.388 74.0051 134.959 77.1183 134.953 77.091C135.066 76.8772 132.352 71.7481 129.793 68.0236L130.042 68.5061C129.943 68.2756 129.84 68.029 129.729 67.7727C128.847 65.734 128.11 64.1647 127.965 63.8564C126.803 61.4165 127.306 63.7773 126.405 61.6772C124.814 58.0856 126.846 60.0088 123.322 55.798C122.765 53.7187 122.48 53.6397 121.205 51.2882C121.036 50.9797 121.386 51.1028 121.318 50.9631C119.543 47.2933 120.627 50.2677 120.595 50.2615C120.052 50.1283 118.099 46.2488 117.584 45.4835C111.257 35.893 106.107 29.1604 97.7344 20.4589C95.9738 18.5423 90.1754 13.024 88.0558 11.6025C86.0319 10.151 86.9024 11.2004 85.767 10.5488C84.5101 8.76082 82.8798 7.41608 78.4931 5.62039C77.1496 4.34335 77.1945 4.76819 74.117 3.36913C71.5873 2.19028 66.794 0.247812 63.5467 0.683191C67.1593 0.983889 66.7739 1.17127 70.6047 2.35033C72.1053 2.27155 84.3292 8.77806 82.9845 8.9513C82.4157 8.86999 78.6408 6.34761 78.4452 6.35452C77.404 6.16154 79.4683 7.63941 81.3963 8.69269C80.9558 8.34625 80.4242 7.95371 79.9401 7.6029C84.4261 9.87508 80.6757 9.27753 84.5717 10.32C85.0453 10.458 84.9922 10.2143 85.7244 10.5313C85.813 10.681 84.939 10.2672 85.5861 10.7706C86.2511 11.2832 87.7167 11.9872 87.7304 12.3545C87.7724 12.88 85.1005 10.671 84.8666 10.5612C84.8657 10.5576 84.8649 10.554 84.8641 10.5505C82.8728 9.40755 86.764 12.1946 86.8971 12.3914C87.9049 13.4942 87.01 13.022 88.5927 14.5721C89.4946 15.4454 91.9488 17.5194 92.7764 18.369C93.6006 19.1993 92.146 18.0924 92.69 18.6604C93.2302 19.2242 94.0538 19.817 94.6711 20.4993C94.9358 20.7928 94.7703 20.9296 94.8998 21.0703C96.2813 22.5943 95.6679 21.3255 96.9356 22.6913C97.7713 23.5756 100.157 26.8844 98.2094 24.8884C99.0648 25.8999 99.9241 26.9349 100.746 27.9639C100.161 27.3664 99.5533 26.7266 98.955 26.1597C100.697 27.9967 101.122 29.1011 102.093 30.3425C103.05 31.5765 104.272 32.4351 105.137 33.95C106.994 37.1822 101.661 29.7412 100.807 28.9718C100.5 28.65 101.321 30.1823 101.472 30.3908C102.159 31.3054 103.206 32.2454 103.739 32.9605C105.642 35.5286 106.528 37.3302 108.177 39.8755C113.867 48.5865 119.657 60.1464 123.289 69.3105C123.418 69.629 123.544 69.9352 123.667 70.2298C123.76 70.4493 123.858 70.6875 123.966 70.9384L124.286 71.5596C125.74 73.7022 126.799 75.0728 127.452 76.2577C129.248 79.605 129.164 80.1829 130.572 83.1847C132.668 87.6589 135.407 94.1229 136.727 98.0808C137.663 100.811 138.086 103.416 138.281 104.136C141.076 114.191 143.226 126.762 144.053 135.393C144.185 136.687 144.317 137.755 144.441 138.65C144.706 140.559 144.935 141.631 144.968 142.204C145.155 145.827 144.801 144.871 144.962 147.801C145.039 149.384 145.326 149.672 145.344 149.884C145.488 151.752 145.123 152.131 145.128 153.588C145.135 160.779 144.983 167.747 144.282 174.776L144.262 175.276C144.309 176.437 144.341 177.601 144.355 178.771C144.363 179.372 144.526 179.317 144.519 179.707C144.478 181.379 144.224 180.601 144.188 182.346C144.099 185.974 143.974 189.701 143.702 193.544C143.675 193.925 143.872 194.113 143.797 194.984C143.719 195.856 143.461 196.498 143.331 197.865C143.278 198.415 143.228 198.965 143.178 199.516C142.906 202.534 142.661 205.563 142.141 208.738C142.039 209.357 141.657 210.085 141.492 211.012C140.984 213.924 140.29 218.254 139.686 220.718C137.724 228.846 135.178 236.149 132.101 243.333C131.377 245.021 130.908 246.592 130.501 247.462C129.578 249.408 130.094 247.849 129.122 249.802C126.481 255.029 123.434 260.061 119.87 264.6L119.768 264.735C113.054 274.227 103.321 281.645 92.2404 285.563C85.7584 287.949 77.3373 288.952 70.7101 288.687C68.3551 288.607 67.6299 288.747 66.2434 288.668C66.0067 288.653 65.7514 288.629 65.4667 288.594C61.9942 288.107 61.4358 287.608 57.8945 286.68C55.0808 285.909 51.77 285.164 48.9827 283.879C46.211 282.573 45.1282 281.592 42.185 279.73C39.7634 278.192 36.436 275.919 34.1399 273.774C25.6978 266.015 19.7095 255.777 17.1324 244.748L16.9986 244.307C11.0859 227.832 9.54157 209.737 10.6953 191.781C10.8211 189.895 10.9886 187.979 11.1975 186.034C12.1484 177.086 14.0175 167.706 16.3602 159.026C16.6325 158.039 15.7962 159.421 16.88 156.304C17.4792 154.632 18.5526 152.388 20.0786 148.605C23.121 141.117 26.8697 133.714 31.631 126.998L32.7895 125.364L31.9268 123.636C29.959 119.682 28.1089 115.641 26.3917 111.536C21.5615 99.9848 17.7709 87.9226 15.6222 75.8793C13.6563 64.7271 12.9796 53.1182 14.6921 42.2146L14.8656 40.8328L14.1179 39.7509C14.0411 39.6342 14.0107 39.5848 14.025 39.6024C11.8095 36.0051 14.6534 29.4833 18.4574 24.7653C22.3253 19.8614 27.2866 15.7134 32.5205 12.291C41.7965 6.38832 52.516 1.72519 62.0061 3.23079C63.366 3.55833 63.0785 2.4277 62.2553 1.86313C61.374 1.76781 60.548 1.79934 59.644 1.8616C58.7087 0.610069 58.814 0.655356 54.5068 0.870539C51.8489 1.13231 53.932 0.469326 52.4889 0.469223C50.5727 0.243265 41.8468 2.18082 43.7436 2.46717C43.1808 2.51368 42.6672 2.5577 42.117 2.61936C37.8379 4.09066 33.8043 5.99394 29.9705 8.23521C28.3693 9.17292 26.8053 10.1714 25.2809 11.2358C24.386 11.8662 24.2037 11.7033 23.2916 12.3848C20.8683 14.2249 19.1762 15.9922 17.0272 18.2795C15.8709 19.5477 15.4932 19.5303 14.1078 21.3271C12.7717 23.17 13.0778 23.2817 11.137 25.7535C11.6963 23.6579 7.45594 31.9846 7.80429 35.7255C7.66945 36.1471 7.59755 40.5677 9.18922 42.6429C9.21322 42.6802 9.23571 42.7139 9.2565 42.7443C9.31567 42.8308 9.36345 42.8958 9.3951 42.9388L9.04651 41.4432C8.8289 43.4441 8.78692 46.3853 8.53035 49.3439C8.40567 50.7856 8.0597 51.6567 8.03927 53.2249C8.02692 54.3237 8.33883 55.6335 8.40137 57.0242C8.45157 58.3968 8.40486 61.42 8.45057 61.9574C8.5948 63.9362 8.62008 61.7365 8.74354 63.0895C9.3349 69.5986 10.6801 77.0454 11.9687 83.3259C12.1268 84.1014 11.6495 83.0867 11.6651 83.1908C12.5857 88.4798 12.254 85.6242 12.7987 86.9742C13.2648 88.3044 15.9774 98.1549 15.6601 98.342C16.2537 98.4854 16.5677 100.769 16.7441 101.337C17.4194 103.533 17.7057 102.963 18.3106 105.107C18.5367 105.896 17.7124 104.496 18.0157 105.323C18.7689 107.365 19.908 109.025 21.011 111.692C21.2565 112.281 21.174 112.576 21.5247 113.509C21.5562 113.593 21.5913 113.682 21.6304 113.776C22.0893 114.931 24.3951 119.603 23.0189 117.581C24.6192 120.329 24.6848 120.991 26.2553 124.312C26.4766 124.775 26.8308 125.265 27.234 125.915L27.4081 123.935C27.095 124.476 26.6978 125.11 26.1521 125.818C25.7415 126.354 25.4635 126.15 24.8981 126.999C23.608 128.953 22.7586 131.009 21.3412 133.588C18.6941 138.416 16.0286 143.66 14.0877 149.058C13.5688 150.52 14.0145 150.281 13.2709 152.406C13.1559 152.721 12.0003 155.198 11.568 156.704C11.2826 157.601 10.1435 162.336 9.93213 163.296C9.55249 164.865 9.16232 165.077 9.01558 165.951C8.60702 168.499 9.54421 166.591 8.21715 169.464C8.36225 170.533 7.96695 172.296 8.30856 172.947C7.61716 173.882 7.83646 175.306 7.33848 177.28C6.8404 179.255 5.648 180.779 6.61454 181.41C6.44304 182.019 6.0616 183.967 5.82031 185.423C5.69498 186.169 5.60253 186.782 5.57331 187.011C5.32756 189.012 5.72002 187.969 5.54242 189.476C5.51402 189.741 5.33486 189.446 5.21704 191.161C5.0851 192.283 4.73426 200.542 4.80659 201.038C5.06355 206.669 5.02024 197.972 5.34086 196.771C5.29394 196.554 5.24717 196.339 5.20251 196.107C5.23614 193.624 5.60602 195.061 5.65592 196.185C5.70343 197.313 5.43749 199.403 5.56864 200.338C5.63439 200.806 6.16932 200.525 6.14184 199.126C6.2674 200.627 6.4949 198.588 6.63406 199.184C6.7472 199.838 6.79526 206.544 6.53578 206.585C6.49807 205.332 6.49652 203.77 6.4931 202.5C6.00083 200.816 4.15703 205.916 5.09704 210.577C5.80414 213.932 5.80106 208.342 5.97409 216.343C5.84564 215.123 5.71963 214.086 5.62586 212.973C5.23324 212.88 5.77664 214.661 5.73593 215.602C5.71159 216.058 5.21944 213.311 5.32206 215.722C6.05052 217.74 5.63832 219.374 6.09514 222.833C6.06021 221.856 6.03695 220.891 6.02361 219.917C7.12224 225.683 5.61421 212.188 7.23548 223.431C7.05998 222.078 6.88393 220.728 6.7589 219.363C7.0332 219.999 7.50318 218.88 7.69338 219.454C8.19085 220.96 8.29182 223.248 8.61885 225.114C8.7609 225.927 8.8381 225.396 8.84981 225.464C9.05033 226.58 8.77812 226.371 8.93379 227.352C9.11779 228.592 10.0674 232.084 10.1828 232.652C10.4536 234.146 9.44526 231.784 9.44733 231.933C9.4286 232.928 10.0697 234.813 9.76346 234.782C8.68419 230.137 6.42428 216.53 7.94921 228.932C6.88641 225.62 6.34573 226.707 7.28739 231.632C8.1341 235.689 7.81052 233.023 8.5808 235.05C8.64836 235.322 10.2352 240.613 10.1595 240.936C10.5411 240.591 11.4673 242.174 11.5723 240.886C11.5835 240.704 10.9235 238.559 11.5165 239.2C11.8119 239.524 12.5406 240.465 12.7261 240.219C12.6928 240.701 12.6519 241.22 12.6222 241.716C13.2395 243.726 13.6373 244.614 14.0608 245.392L14.0868 245.478C14.2816 245.96 14.4968 246.407 14.7843 247.018C14.6361 246.977 13.6479 245.498 14.4852 247.914C14.5331 248.036 14.7488 248.096 15.2244 249.297C16.2159 251.719 16.4792 252.175 16.3929 250.119C17.8648 255.255 18.9457 256.062 21.4002 260.901C20.2235 260.336 19.2927 258.593 17.4824 253.908C17.2315 253.776 17.026 253.748 16.7711 253.606C19.8243 259.625 18.4445 256.569 19.8558 260.143C20.1765 261.036 22.93 265.206 21.6055 264.076C21.2706 263.821 19.6789 261.124 19.7041 261.523C19.6819 261.614 21.6071 264.919 21.8623 265.155C24.8482 268.201 20.5048 262.126 27.5501 271.194C27.7558 271.434 27.6626 271.667 28.0596 272.146C28.8122 273.043 29.0106 272.875 29.6955 273.659C30.382 274.439 31.1892 275.705 32.5809 276.507C35.1015 277.941 30.2708 273.315 28.1317 271.237C28.0212 270.525 31.4311 274.203 35.6355 277.408C39.7863 280.688 44.7271 283.343 45.2934 283.654C50.2566 286.478 41.8588 282.049 41.4077 281.827C41.1952 281.791 40.6492 282.835 39.0232 280.866C38.5505 280.292 41.1994 281.701 39.7799 280.62C38.3759 279.527 38.7723 280.191 38.6511 280.139C38.2367 279.959 36.7765 278.737 36.5581 278.621C33.1408 276.811 32.6831 277.961 37.7096 279.723C39.2928 281.311 34.8327 278.789 36.9204 280.619C39.4946 282.849 41.9334 283.624 42.3001 283.815C46.8844 285.994 41.3282 283.976 47.0069 286.524C50.2049 287.823 42.5204 283.964 49.6766 287.194C55.7966 289.567 52.4142 288.529 52.6549 289.28C52.7153 289.447 56.136 290.795 51.4329 289.112C51.3538 288.917 51.1753 288.632 50.9323 288.386C49.7613 288.074 47.5745 287.987 46.9668 287.733C44.0072 286.493 44.3547 286.169 42.4649 285.695C43.8983 285.886 41.82 285.112 41.1729 284.591C38.7985 282.625 42.1932 284.763 36.2653 281.331C37.1317 281.658 37.9253 281.916 38.7714 282.186C38.0998 281.73 37.44 281.262 36.7872 280.779C35.479 280.533 32.1052 277.741 34.8765 280.618C31.0128 277.812 29.7648 276.281 29.3047 275.277C29.22 275.081 28.7363 274.56 28.164 273.953C28.3585 273.985 28.7594 273.876 28.7006 273.751C28.1707 272.651 26.4701 271.758 26.6872 272.389C26.2881 271.962 25.9748 271.621 25.8634 271.502C25.1567 270.742 26.3082 272.435 25.6969 271.851C25.4809 271.669 23.6646 269.366 23.5673 269.369C22.9251 269.413 26.0126 273.186 20.095 265.4C20.4053 264.924 22.8878 268.684 22.7033 267.389C22.4875 266.038 20.4038 264.415 20.7802 263.528C20.5647 263.424 20.4269 263.404 20.2111 263.33C18.5158 259.83 18.0055 260.055 17.3166 259.059C15.8612 257.168 12.151 247.143 16.1663 255.842C15.6609 254.542 15.1635 253.21 14.7472 251.889C13.6063 251.957 14.057 252.696 12.1391 246.216C12.1149 246.128 12.0901 246.043 12.0649 245.962L12.1104 246.112C11.5926 244.947 11.0289 244.594 11.1363 243.121C10.615 243.505 9.65508 239.202 9.50132 238.831C8.4346 236.662 10.0071 244.223 11.5677 246.312L11.5022 246.097C11.6395 246.355 11.778 246.543 11.9121 246.641C11.9321 248.355 12.4495 248.213 12.9186 250.002C13.6456 252.576 13.6639 252.991 15.2449 255.767C15.7488 258.966 10.8324 244.295 13.2321 253.405C14.2482 257.28 19.2056 269.476 29.8483 279.076C40.1871 288.98 55.5941 294.519 65.4733 295.448C68.5645 295.826 71.1254 295.916 72.8916 295.931C96.4556 295.103 109.277 288.078 123.305 272.277C123.664 271.834 124.661 270.605 125.78 269.021L125.663 269.177C128.935 265.137 132.726 258.492 131.104 260.268C130.813 260.64 126.976 266.063 129.641 261.014C129.283 262.156 131.217 259.424 131.378 259.186C135.149 253.938 133.719 257.359 138.075 248.19ZM141.743 218.537C138.857 230.879 140.672 221.734 139.084 224.032C139.495 222.476 139.882 220.915 140.248 219.338C140.211 219.766 140.174 220.189 140.134 220.616C140.133 220.618 140.133 220.619 140.132 220.621C140.673 219.935 141.211 219.234 141.743 218.537ZM96.2805 23.717C96.5196 24.1603 96.753 24.6024 97.0182 25.0801C98.1567 26.2666 99.2832 27.4976 100.366 28.7286C100.306 28.521 100.252 28.3181 100.191 28.1111C98.9207 26.6138 97.6222 25.1586 96.2805 23.717ZM27.0829 269.82C25.3083 268.236 25.9193 268.021 23.8571 265.676C24.464 265.715 25.0847 265.784 25.6951 265.822C27.0312 267.715 27.2232 268.25 28.9725 270.074C28.6635 269.956 28.3494 269.83 28.0445 269.711C27.7922 269.369 27.5301 269.001 27.2917 268.667C26.5283 268.44 29.151 271.594 27.0874 269.827C27.0859 269.825 27.0844 269.823 27.0829 269.82ZM15.7879 248.822C15.5731 248.234 15.069 246.771 14.6862 245.334L14.639 245.178C14.0757 243.778 13.6109 242.405 13.5966 242.044C13.5578 240.928 14.3741 243.244 15.0891 245.012L15.1529 245.222C15.6608 247.057 16.0322 248.353 15.433 245.155L15.3593 244.912C15.2152 244.427 15.0377 243.826 14.834 243.106C14.9375 243.12 15.0084 243.046 15.0956 243.016C15.3092 243.601 15.5304 244.19 15.7541 244.766L15.8422 245.057C16.1511 246.261 16.4966 247.451 16.8828 248.64C16.502 248.653 16.175 248.824 15.7879 248.822ZM124.629 260.643C124.108 261.484 122.398 263.82 120.936 265.442L120.874 265.523C119.562 267.143 118.512 268.134 119.242 266.872C119.406 266.582 119.926 265.994 120.539 265.285L120.613 265.187C121.676 264.082 123.014 262.622 123.547 261.822C124.106 260.98 123.206 261.725 124.413 260.146C124.485 260.3 124.59 260.435 124.625 260.647C124.627 260.645 124.628 260.644 124.629 260.643ZM128.226 258.574C127.108 260.297 125.909 261.99 124.663 263.631C125.237 262.204 127.047 259.862 126.683 259.431C126.35 259.882 126.019 260.321 125.675 260.768C125.536 261.19 125.399 261.601 125.257 262.015C124.011 263.298 124.54 262.361 122.665 265.026C123.187 262.949 123.121 262.531 126.774 258.265C125.846 258.919 125.194 257.379 127.592 255.252C128.044 254.851 126.95 256.981 126.953 257.02C127.08 257.531 127.972 256.498 128.069 257.02C128.115 257.26 127.348 258.524 127.417 258.825C127.456 258.97 128.452 257.926 128.226 258.574ZM128.632 254.129C128.135 254.56 128.702 252.459 129.634 250.866C131.077 248.384 129.501 252.663 128.632 254.129ZM96.2734 23.7087C96.2758 23.7115 96.2781 23.7142 96.2805 23.717C96.2796 23.7153 96.2787 23.7136 96.2778 23.712C96.2764 23.7109 96.2749 23.7098 96.2734 23.7087ZM18.2686 254.801C17.847 253.375 17.0709 251.345 17.4152 251.391C17.1162 250.743 16.8269 250.08 16.5512 249.419C16.6402 249.397 16.7315 249.382 16.8197 249.36C17.5304 251.379 18.3495 253.346 19.277 255.267C18.9445 255.123 18.6193 254.995 18.2686 254.801ZM11.0205 232.041C10.4106 229.351 11.2998 231.527 11.3685 230.894C11.4317 230.264 10.8094 227.897 11.1481 228.127C11.455 229.711 11.8076 231.35 12.1864 232.938C11.7861 232.591 11.4091 232.363 11.0193 232.035C11.0197 232.037 11.0201 232.039 11.0205 232.041ZM146.354 166.825C146.316 168.699 146.707 167.964 146.025 171.62C146.025 171.617 146.025 171.615 146.025 171.612C146.091 168.084 146.121 163.564 146.451 159.689C146.726 162.073 146.392 163.876 146.354 166.825ZM32.1809 273.857C32.5638 274.585 29.8235 272.211 29.4714 271.446C28.8725 270.26 31.5678 272.8 32.1809 273.857ZM138.117 91.5761C137.807 88.5951 140.648 93.4274 141.98 99.0766C142.102 99.5566 140.744 96.0872 140.935 97.1839C140.957 97.29 141.589 99.2335 141.63 99.747C141.673 100.259 141.282 99.8259 141.419 100.645C141.668 102.085 142.866 105.133 142.903 106.252C142.909 106.395 142.065 104.523 142.017 104.409C141.276 102.459 141.115 100.423 141.024 100.114C140.556 98.5295 140.298 98.8688 140.098 98.4951C139.72 97.7948 139.43 96.4278 139.388 96.3405C138.319 94.0653 140.192 99.456 140.274 100.241C140.541 102.323 139.744 100.566 140.889 105.39C141 105.855 142.449 111.28 140.261 104.534C142.998 118.173 138.119 97.8936 137.277 95.7826C137.015 94.7656 137.836 96.1614 137.77 95.5124C137.624 94.0294 136.826 91.683 137.344 91.7289C138.445 91.8275 138.948 95.1423 139.791 97.2295C139.923 96.9369 140.095 96.785 140.157 96.3004C140.118 97.0257 138.159 91.7805 138.115 91.5768C138.116 91.5766 138.116 91.5764 138.117 91.5761ZM145.617 126.229C146.362 129.3 145.708 129.161 146.414 131.971C146.151 134.555 145.604 129.586 145.48 129.017C144.977 126.404 144.382 126.558 144.145 123.854C144.65 124.712 145.129 125.415 145.617 126.229ZM139.391 99.6852C139.704 101.781 138.605 98.1951 138.493 98.0787C137.422 96.6831 140.767 107.363 139.391 99.6852ZM118.302 271.076C117.613 271.886 117.835 271.182 117.143 271.811C116.467 272.452 114.386 274.883 114.3 274.68C114.263 274.496 117.973 270.054 113.8 274.069C113.869 273.857 113.766 273.845 113.767 273.711C114.906 272.612 116.008 271.456 117.054 270.268C116.708 271.122 116.336 271.999 115.959 272.814C116.762 272.332 116.876 271.741 116.908 271.707C116.908 271.707 116.908 271.707 116.909 271.707C118.061 270.495 119.816 269.235 118.302 271.076ZM145.799 193.308C146.585 193.05 145.537 195.488 145.341 196.5C145.151 197.514 145.28 198.949 145.011 198.386C144.971 196.713 145.718 193.339 145.8 193.308C145.8 193.308 145.8 193.308 145.799 193.308ZM147.396 143.201C147.365 145.842 147.153 145.429 147.504 148.637C147.316 148.519 147.124 148.401 146.938 148.284C146.831 145.737 147.377 145.888 146.985 142.95C146.917 142.469 146.565 143.53 146.551 141.343C146.823 141.96 147.118 142.587 147.396 143.201ZM147.098 156.24C147.126 153.235 148.597 150.81 147.942 156.391C147.837 157.219 147.06 158.505 147.098 156.24ZM133.305 247.7C131.13 252.364 133.451 246.995 133.759 245.67C128.509 256.392 134.472 244.498 134.121 243.069C134.886 241.816 136.352 239.461 135.344 242.325C134.911 243.521 134.877 243.004 134.849 243.075C133.992 245.241 134.453 245.132 133.305 247.7ZM144.776 120.836C144.799 121.029 144.494 120.775 144.549 121.39C144.606 122.003 145.014 123.357 144.879 123.517C144.749 123.677 144.164 120.942 144.117 120.075C144.076 119.211 144.563 119.087 144.776 120.836ZM147.872 140.369C147.877 142.751 146.815 139.423 146.603 138.464C146.585 138.382 146.574 138.318 146.571 138.274C146.327 135.267 146.78 136.806 147.222 138.41C147.498 139.411 147.761 140.434 147.872 140.369ZM139.332 237.176C136.695 242.894 137.579 238.296 138.352 234.47C138.613 234.017 138.878 233.545 139.13 233.098C137.789 235.117 135.977 238.787 139.282 230.344C137.922 235.119 139.341 231.211 139.383 231.186C140.667 231.015 137.798 237.863 139.334 237.17C139.334 237.172 139.333 237.174 139.332 237.176ZM142.87 112.701C142.325 110.065 140.705 103.24 142.023 106.28C142.345 108.416 142.628 110.562 142.87 112.701ZM62.6981 292.384C60.4335 292.294 58.3736 291.862 55.6992 291.094C58.2233 291.353 56.6419 290.883 55.8649 290.559C54.6828 290.071 57.6414 290.907 57.6609 290.865C57.703 290.455 55.8192 289.992 60.1343 290.981C59.0912 290.623 58.0735 290.24 57.0578 289.831C60.3139 290.645 61.153 290.504 63.2823 290.55C61.2396 290.935 63.6058 290.983 65.9185 291.528C66.0389 291.557 66.1591 291.587 66.2786 291.618C66.7681 291.747 66.4712 291.913 65.8582 292.059C64.9566 292.277 63.3873 292.414 62.6897 292.382C62.6924 292.383 62.6953 292.383 62.6981 292.384ZM137.15 243.293C136.776 243.843 136.378 244.311 135.988 244.824C135.705 245.447 135.421 246.064 135.131 246.676C135.207 246.803 135.294 246.919 135.36 247.057C135.021 247.894 135.011 247.503 134.886 247.739C134.887 247.74 134.887 247.74 134.888 247.74C133.076 251.117 132.381 252.506 131.275 255.325C130.949 255.146 130.624 254.967 130.298 254.787C130.652 254.218 131.004 253.638 131.345 253.064C131.687 252.843 132.03 252.616 132.373 252.387C132.628 251.649 132.876 250.909 133.119 250.162C133.454 249.639 133.845 248.995 134.138 248.533C134.51 245.3 132.149 251.952 131.694 251.789C131.47 251.725 134.507 245.371 135.032 244.491C135.113 244.367 135.23 246.078 135.867 243.539C135.961 243.135 134.485 242.389 136.759 240.303C137.081 240 137.554 241.676 137.15 243.293ZM125.049 266.277C125.686 264.663 124.711 265.92 123.504 267.471L123.54 267.424C121.943 269.713 119.788 272.532 121.753 269.281C120.229 270.412 120.465 270.141 121.239 268.44C121.307 268.291 120.428 269.196 120.479 269.1C121.057 268.12 121.817 267.097 122.153 266.435L122.168 266.416C122.352 266.094 122.428 265.86 122.315 265.767C122.611 265.423 122.891 265.09 123.181 264.74C122.361 266.51 124.417 264.266 125.372 263.486C125.81 263.136 125.138 264.175 125.511 263.885C125.651 263.782 126.558 262.287 126.711 262.31C127.064 262.366 126.831 263.534 125.931 265.195C125.931 265.195 125.931 265.195 125.932 265.195C125.638 265.566 125.346 265.918 125.049 266.277ZM148.64 185.082C148.063 184.382 147.985 181.679 147.528 186.869C147.422 186.607 147.316 186.338 147.209 186.078C147.249 185.203 147.283 184.355 147.31 183.466C149.124 180.814 147.079 175.91 148.351 179.04C148.49 179.381 148.341 181.474 148.702 179.407C148.703 179.41 148.703 179.413 148.703 179.416C148.593 182.303 148.372 182.658 148.64 185.082ZM146.622 204.265C145.195 208.435 145.938 203.257 146.463 199.889C146.75 198.1 147.011 196.819 147.035 197.74C147.037 197.827 146.913 198.776 146.771 199.924C146.528 201.933 146.199 204.537 146.622 204.265ZM150.318 151.131C150.398 154.124 149.709 154.325 149.469 154.026C149.227 153.728 149.443 151.664 149.396 151.397C149.252 150.534 149.207 152.372 149.011 151.252C148.964 150.878 148.535 145.719 148.535 145.482C148.628 144.16 149.28 146.053 149.324 145.675C149.473 144.434 149.081 142.781 149.35 142.406C149.93 141.595 149.467 144.755 149.477 145.28C149.526 146.869 149.871 146.715 149.99 147.904C150.106 149.094 150.008 149.875 150.058 150.926C150.074 151.276 150.313 150.979 150.318 151.131ZM148.867 160.985C149.471 157.888 149.786 165.487 149.574 166.384C149.069 169.001 148.614 162.457 148.867 160.985ZM129.237 257C130.99 254.723 127.91 260.625 126.667 262.095C126.763 261.722 128.661 257.792 129.237 257ZM139.906 235.531C138.934 237.966 139.313 234.417 139.979 232.355C140.886 231.298 140.423 232.422 139.998 233.779C139.567 235.141 140.65 233.619 139.906 235.531ZM146.412 118.987C146.573 119.544 147.554 128.593 146.551 123.465C146.499 123.068 145.446 116.801 145.407 116.315C145.381 115.328 146.127 117.562 146.412 118.987ZM144.281 223.666C143.479 224.9 143.126 226.219 142.921 224.841C142.922 224.839 142.922 224.838 142.923 224.836C141.849 228.179 142.865 228.639 142.633 229.363C141.788 231.891 141.742 229.245 141.005 230.758C142.354 227.135 141.515 228.039 142.257 225.21C142.425 224.577 143.389 222.106 143.672 221.781C143.96 221.456 144.231 222.905 144.281 223.666ZM143.741 106.394C144.687 109.34 144.575 112.244 143.458 108.141C142.896 106.146 143.154 104.603 143.741 106.394ZM12.0159 245.426C12.1803 245.603 12.346 245.782 12.5132 245.963L12.4825 245.862C12.6456 246.089 12.811 246.32 12.9788 246.554C12.9251 246.297 12.8731 246.039 12.8228 245.78L12.8415 245.842C12.5756 245.014 12.3185 244.17 12.0764 243.333C12.2954 244.176 12.5307 245.025 12.7765 245.866L12.7554 245.797C12.7597 245.822 12.7641 245.848 12.7685 245.874C12.7615 245.849 12.7545 245.823 12.7475 245.798L12.7689 245.869C11.9878 243.947 11.3517 243.171 12.014 245.42C12.0146 245.422 12.0152 245.424 12.0159 245.426ZM8.64873 170.243C8.65568 169.264 9.65878 167.558 9.65138 167.804C9.58592 169.624 8.6395 171.594 8.64873 170.243ZM128.572 261.56C126.65 264.616 127.243 262.012 128.343 260.141C127.783 261.372 129.626 259.819 128.572 261.56ZM5.34086 196.771C5.41074 197.094 5.48145 197.418 5.55215 197.777C5.47807 196.653 5.41199 196.452 5.34086 196.771ZM147.517 120.265C147.696 120.78 148.408 124.737 148.388 125.293C148.363 126.431 147.372 123.423 147.218 121.584C147.203 121.381 147.35 119.747 147.519 120.273C147.518 120.27 147.518 120.268 147.517 120.265ZM10.1367 240.952C10.1475 240.955 10.155 240.949 10.1595 240.936C10.1524 240.943 10.1434 240.944 10.1367 240.952ZM15.6083 98.3256C15.6293 98.3421 15.6471 98.3488 15.6601 98.342C15.6441 98.3381 15.6248 98.3262 15.6083 98.3256ZM151.317 148.376C152.296 149.688 151.867 152.805 151.353 150.368C151.327 150.232 151.332 148.701 151.317 148.376Z" fill="#4D1C61"/>
</g>
<defs>
<filter id="filter0_d_36_58" x="0.796875" y="0.406982" width="156.011" height="303.524" filterUnits="userSpaceOnUse" color-interpolation-filters="sRGB">
<feFlood flood-opacity="0" result="BackgroundImageFix"/>
<feColorMatrix in="SourceAlpha" type="matrix" values="0 0 0 0 0 0 0 0 0 0 0 0 0 0 0 0 0 0 127 0" result="hardAlpha"/>
<feOffset dy="4"/>
<feGaussianBlur stdDeviation="2"/>
<feComposite in2="hardAlpha" operator="out"/>
<feColorMatrix type="matrix" values="0 0 0 0 0 0 0 0 0 0 0 0 0 0 0 0 0 0 0.25 0"/>
<feBlend mode="normal" in2="BackgroundImageFix" result="effect1_dropShadow_36_58"/>
<feBlend mode="normal" in="SourceGraphic" in2="effect1_dropShadow_36_58" result="shape"/>
</filter>
</defs>
</svg>
