<svg width="345" height="465" viewBox="0 0 345 465" fill="none" xmlns="http://www.w3.org/2000/svg">
<path d="M172.719 2.02832C206.692 1.495 236.726 8.43491 254.468 19.4131C305.874 37.4325 343.927 129.885 342.229 240.47C340.343 363.187 290.219 461.762 230.273 460.643C217.997 460.413 206.262 456.019 195.376 448.124C192.121 410.663 182.949 383.67 172.142 383.67C161.533 383.67 152.499 409.679 149.092 446.067C136.651 455.723 123.187 460.905 109.184 460.644C49.2379 459.524 2.16973 359.135 4.05469 236.418C5.70294 129.12 44.2296 40.277 93.9551 20.3936C111.675 9.72695 140.318 2.53702 172.719 2.02832Z" fill="#A77DD3"/>
<path d="M61.0442 442.004C19.3161 398.28 5.44245 332.235 1.14845 274.802C0.696195 267.62 1.03556 268.144 0.960046 266.132C0.793023 260.651 0.380309 257.36 0.313663 253.371C0.224173 247.58 0.238901 241.994 0.349539 236.361C0.616391 223.091 1.40021 210.136 2.83549 196.811C5.14929 177.326 4.97994 186.63 6.05789 179.927C8.43528 166.832 5.65479 177.854 6.21833 172.644C8.70444 157.591 12.1088 142.501 16.4743 127.829C15.5354 131.444 14.6497 135.088 13.8121 138.762C15.4534 132.353 18.2877 123.151 15.5449 134.022C16.2662 131.65 16.9793 129.448 17.7584 127.056C17.5193 126.275 21.0236 115.006 21.2085 113.905C21.3227 112.797 19.2733 119.155 19.2883 119.095C18.8765 118.485 28.6969 93.0283 29.8396 91.3534C32.0262 86.6398 30.6084 91.0029 32.4078 86.9692C35.6372 80.0525 32.4375 84.1562 38.3463 75.5896C39.905 71.7829 40.2682 71.545 42.9102 67.0917C43.2658 66.5008 42.7773 66.8328 42.927 66.5687C46.8695 59.7478 44.1083 65.1513 44.1525 65.1265C44.8405 64.7293 49.2575 57.5258 50.3486 56.1394C62.8311 39.7152 74.2127 27.889 93.6559 19.6453L93.5395 19.7031C94.8904 18.902 96.3145 18.1141 97.7707 17.3604C102.172 14.7495 116.602 9.21778 121.407 8.17979C126.083 6.98508 123.671 7.95769 126.142 7.47798C129.885 5.81701 133.665 4.77571 142.71 3.84133C145.976 2.82066 145.601 3.25549 152.028 2.41436C157.36 1.70795 166.741 0.46819 172.702 0.970038C165.889 1.08516 166.604 1.29708 158.975 1.96991C156.386 1.77843 130.122 5.85074 132.241 6.34636C133.291 6.36371 141.886 4.54814 142.234 4.59491C144.228 4.6062 139.46 5.68599 135.185 6.3958C136.234 6.12731 137.497 5.82827 138.633 5.56584C128.984 7.00346 135.863 7.14343 128.362 7.46233C127.441 7.51694 127.737 7.27165 126.229 7.46756C125.944 7.60949 127.781 7.33681 126.242 7.7474C124.677 8.15898 121.605 8.65243 121.241 9.05064C120.683 9.59954 127.131 7.72343 127.643 7.66123C127.648 7.65759 127.653 7.65395 127.658 7.65031C132.048 6.82253 122.983 9.02467 122.584 9.23646C119.877 10.26 121.805 9.88306 117.744 11.3305C115.419 12.138 109.517 14.1626 107.41 15.1072C105.3 16.017 108.679 14.8361 107.263 15.4603C105.854 16.0814 104.055 16.7019 102.435 17.5162C101.749 17.8626 101.881 18.0377 101.546 18.2074C98.0195 20.0576 100.136 18.4659 96.9595 20.2059C96.4268 20.5067 95.5488 21.0426 94.6907 21.6156L94.4847 21.718C91.875 22.9049 89.1244 24.5298 92.7487 22.9555C90.3943 24.0379 88.2042 25.1978 85.9768 26.5328C87.4226 25.7629 88.9108 25.014 90.3397 24.3952C86.0124 26.4563 84.3751 27.9819 81.8639 29.6834C79.4207 31.3806 76.9501 32.7006 74.5422 35.0106C69.3614 39.9222 82.7731 28.5207 84.9558 27.8415C85.6852 27.4235 83.1263 29.4207 82.7201 29.7261C80.8976 30.9836 78.6511 32.3421 77.2981 33.4293C72.5258 37.3062 70.0132 40.1653 66.0332 44.4998C52.4074 59.2562 40.4085 81.7475 33.335 99.5952C30.6439 106.279 28.8848 110.202 27.8238 113.243C25.396 120.397 25.4476 121.347 23.5524 127.683C20.7442 137.069 17.2611 150.445 15.6347 158.462C14.4698 164.021 13.9061 169.14 13.6689 170.595C10.2551 190.802 8.22883 215.731 7.92876 232.719C7.89687 234.089 7.86369 235.338 7.82972 236.476C7.66992 241.991 7.46355 244.819 7.47615 246.184C7.58908 253.285 7.86198 251.396 7.97983 257.129C8.05943 260.209 7.80874 260.835 7.81195 261.245C7.86851 264.923 8.27804 265.631 8.44307 268.472C9.43113 284.846 10.9434 300.657 13.6975 316.687C13.8986 317.85 13.7197 317.775 13.8623 318.525C14.4897 321.741 14.4586 320.174 15.1228 323.55C16.5249 330.566 18.0667 337.682 19.9359 345.014C20.122 345.74 20.0014 346.122 20.4429 347.77C20.8895 349.424 21.4114 350.587 22.1513 353.207C24.0714 359.967 25.9514 366.582 28.5293 373.615C28.9556 374.774 29.7111 376.067 30.3841 377.805C32.4579 383.244 35.6512 391.103 37.8553 395.577C44.9856 410.194 53.1951 422.906 63.5721 433.976C65.9735 436.53 68.1555 438.89 69.4962 440.09C72.649 442.844 70.3988 440.661 73.625 443.289C83.9103 451.486 96.2919 457.017 109.248 457.215C122.811 457.567 136.075 451.958 147.018 443.396L145.724 445.752C146.447 438.11 147.439 430.49 148.831 422.893C152.357 409.224 152.547 390.106 169.388 380.499C170.357 380.231 171.289 380.127 172.142 380.138C178.546 380.908 179.277 383.178 182.037 386.029C186.741 392.53 187.339 393.752 190.193 401.104C192.295 407.025 193.616 413.998 194.871 420.239C196.1 426.517 196.946 429.338 197.936 436.594C198.365 439.839 198.754 443.809 199.061 447.804L197.547 445.13C200.083 447.012 202.75 448.724 205.207 450.046C213.016 454.281 221.638 456.772 230.344 456.879C279.464 454.689 305.534 400.414 320.69 355.722C327.144 335.98 331.963 313.253 335.134 291.939C335.427 289.934 335.417 293.073 336.138 286.591C336.506 283.11 336.76 278.235 337.406 270.206C338.187 260.372 338.678 250.504 338.866 240.418C339.592 201.431 335.647 160.842 324.837 123.571C312.676 82.9981 291.364 38.1199 253.145 23.187L252.364 22.8137C228.454 8.94131 199.91 5.51249 174.478 3.93239C171.359 3.78142 173.034 2.83149 174.909 2.55471C176.648 2.73176 178.254 2.96133 180.071 3.20201C182.378 2.11701 181.982 2.28709 190.47 2.85982C195.691 3.28302 191.555 2.49624 194.348 2.56689C197.996 2.47006 214.984 4.3974 211.597 4.70979C212.667 4.75634 213.645 4.8013 214.681 4.86223C226.842 7.04324 238.564 10.1691 249.573 15.4671C251.471 16.4066 251.672 16.239 253.586 17.2915C254.147 17.6048 254.683 17.9176 255.2 18.2304L254.928 18.1006C259.696 19.7466 263.588 21.7691 268.175 24.5745C270.961 26.3424 271.503 26.3364 274.945 28.956C278.304 31.6539 278.01 31.8156 282.593 35.5364C280.269 32.4499 292.059 44.8209 295.437 49.861C295.974 50.5054 300.542 56.1228 302.522 59.3966C304.568 62.665 307.302 67.7578 310.202 72.9502C311.552 75.3694 312.593 76.6956 313.933 79.4148C314.864 81.3121 315.652 83.6888 316.734 86.1539C317.819 88.5783 320.241 93.8059 320.626 94.8006C322.029 98.3082 320.31 94.5031 321.245 96.9154C325.79 108.621 329.967 122.628 333.028 134.608C333.404 136.069 333.141 133.982 333.195 134.17C335.884 144.105 334.287 138.847 334.708 141.609C335.232 144.243 338.982 163.648 339.305 163.724C338.887 164.399 339.96 168.672 340.136 169.811C340.825 174.193 340.253 173.375 340.948 177.628C341.198 179.191 341.116 176.095 341.321 177.784C341.825 181.974 341.763 185.734 342.243 191.303C342.355 192.637 342.617 193.049 342.814 195.434C343.041 197.842 343.43 207.848 343.589 203.204C343.601 209.311 343.879 210.511 344.136 217.597C344.193 219.407 343.914 221.702 344.091 225.515C344.149 226.806 344.492 226.762 344.517 228.713C344.559 232.488 344.304 236.039 344.152 240.499C344.124 241.303 344.099 242.134 344.079 242.997C343.839 253.508 343.474 264.788 342.366 275.7C342.057 278.685 341.796 277.914 341.334 282.224C341.272 282.846 340.979 288.092 340.557 291.071C340.339 292.85 338.789 302.115 338.447 303.956C337.925 307.011 338.151 307.63 337.794 309.313C336.739 314.16 336.975 310.173 336.539 316.121C335.812 317.96 335.149 321.413 334.471 322.398C334.544 324.484 333.535 326.911 332.801 330.801C332.072 334.668 332.222 337.987 330.967 338.675C330.648 340.521 328.802 348.05 328.414 349.356C327.355 353.107 327.671 351.03 326.86 353.838C326.711 354.335 327.078 353.856 326.057 357.027C325.478 359.169 320.14 374.154 319.666 375.006C315.358 385.019 321.687 369.442 322.168 367.122C322.361 366.749 322.552 366.378 322.752 365.976C324.413 361.479 323.11 363.889 322.285 365.927C321.464 367.967 320.25 371.829 319.468 373.439C319.069 374.264 318.789 373.532 319.794 371.043C318.625 373.682 319.848 369.939 319.301 370.951C318.784 372.078 313.817 384.123 313.98 384.298C314.978 382.042 316.124 379.274 317.051 376.992C318.713 374.163 316.796 384.024 312.259 391.887C308.907 397.561 313.468 387.755 306.766 401.712C307.9 399.639 308.899 397.802 309.86 395.923C310.313 395.884 308.36 398.829 307.61 400.496C307.257 401.303 309.998 396.642 307.906 400.838C305.546 404.086 304.557 407.119 301.058 412.821C301.973 411.16 302.823 409.553 303.683 407.877C297.58 417.417 310.869 394.727 299.392 413.509C300.822 411.211 302.135 409.036 303.453 406.691C302.632 407.711 303.152 405.624 302.467 406.563C300.687 409.005 298.534 412.918 296.487 415.946C295.597 417.262 296.009 416.352 295.935 416.463C294.713 418.248 295.155 418.014 294.064 419.61C292.727 421.635 288.276 427.083 287.564 427.934C285.777 430.226 289.196 426.766 289.044 426.988C288.076 428.597 285.439 431.42 285.784 431.455C292.051 424.523 306.583 402.169 293.534 422.511C297.748 417.302 297.35 419.362 291.549 427.116C286.596 433.383 289.641 429.184 286.727 432.217C286.432 432.68 278.962 440.371 278.644 440.782C278.635 440.156 275.792 442.24 277.179 440.288C277.422 439.992 280.482 437.013 279.144 437.788C278.474 438.19 276.647 439.351 276.717 438.938C276.185 439.681 275.631 440.458 275.081 441.195C270.295 445.471 269.319 445.837 266.306 447.629C266.51 447.643 269.544 446.215 265.34 448.935C265.121 449.062 264.83 449.053 262.675 450.288C258.198 452.749 257.243 453.077 260.317 450.701C251.334 455.88 248.914 456.224 238.65 458.303C240.793 458.663 244.692 458.341 253.63 454.431C254.09 454.428 254.346 454.511 254.823 454.496C242.524 458.915 248.589 456.621 241.519 458.807C239.78 459.482 230.116 459.936 233.36 460.266C234.136 460.45 240.164 459.745 239.499 459.977C239.385 460.151 232.011 460.864 231.342 460.684C230.931 460.654 230.578 460.62 230.275 460.585C227.409 460.215 229.018 460.026 228.661 459.879C228.341 459.553 225.914 460.233 215.669 457.552C215.081 457.379 214.807 457.535 213.653 457.181C211.493 456.488 211.561 456.229 209.672 455.518C207.791 454.795 205.079 453.901 202.586 452.106C198.095 448.815 209.458 455.242 215.011 456.926C216.349 456.944 205.378 453.485 196.475 446.608L197.241 447.962C196.499 438.16 194.973 428.572 194.732 427.394C192.512 416.105 195.891 434.937 195.647 435.957C195.603 436.375 194.483 436.311 195.76 441.016C196.141 442.413 195.744 436.438 196.273 439.967C196.787 443.503 196.293 442.128 196.3 442.389C196.32 443.281 196.804 447.031 196.795 447.534C196.794 447.693 196.792 447.849 196.79 448.001L196.209 446.975C200.736 450.863 200.487 451.698 195.814 447.52L196.119 448.059C196.156 447.016 196.216 445.804 196.302 444.417C195.512 440.11 195.904 450.104 195.142 444.759C194.205 438.249 194.026 433.461 193.934 432.627C192.69 422.818 193.816 434.167 191.973 422.247C190.804 415.592 194.431 432.038 191.353 416.957C188.311 404.43 189.63 411.273 188.862 410.511C188.667 410.333 186.684 403.623 189.199 412.818C189.415 413.04 189.739 413.496 190.021 414.054C190.468 416.358 190.505 420.353 190.706 421.57C191.705 427.562 192.01 427.222 192.097 430.825C192.224 428.211 192.551 432.381 192.864 433.915C193.994 439.617 193.32 432.04 194.206 445.066C194.283 443.339 194.362 441.808 194.416 440.124C194.604 441.7 194.775 443.23 194.937 444.806C194.839 445.556 194.856 446.903 194.878 448.167L194.899 448.397L195.082 448.529C197.145 450.227 198.962 451.577 194.714 449.037L194.301 448.741L194.252 448.222C194.241 448.152 194.23 448.08 194.218 448.007C194.223 448.079 194.228 448.152 194.233 448.223L194.282 448.751L194.703 449.053C202.003 454.423 205.622 455.65 207.565 456.148C207.947 456.234 209.215 456.771 210.727 457.35C210.484 457.129 210.258 456.646 210.51 456.699C212.732 457.194 215.876 458.854 214.659 458.748C215.736 459.098 216.6 459.346 216.905 459.434C218.84 459.99 214.965 459.191 216.52 459.697C217.018 459.937 222.608 461.057 222.715 461.101C222.995 461.444 221.05 461.172 220.939 461.156C220.838 461.054 222.495 461.808 230.244 462.237C231.051 462.266 231.923 462.281 232.862 462.272C233.039 462.043 231.733 461.978 230.251 461.854C228.037 461.685 225.462 461.32 226.828 461.089C227.749 460.925 228.997 460.972 230.267 461.011C232.365 461.085 234.511 461.106 235.131 460.573C235.531 460.672 235.712 460.764 236.064 460.88C243.503 459.694 243.644 459.937 245.954 459.565C250.638 459.207 269.112 449.816 252.119 457.184C254.583 456.162 257.133 454.938 259.428 453.642C260.413 454.226 259.223 455.268 269.939 447.908C272.214 446.223 273.345 445.957 275.036 443.703C275.18 444.465 281.159 438.391 281.692 437.823C285.728 434.6 272.508 448.316 269.585 448.573C267.247 450.774 266.906 450.369 263.97 452.322C259.568 455.064 258.989 455.577 253.2 457.631C250.49 458.991 256.072 456.987 259.994 454.9C263.889 452.788 266.563 451.48 258.787 456.169C254.661 458.426 244.483 463.626 230.219 463.539C218.463 463.609 204.75 458.971 193.481 450.736L192.299 449.889L192.161 448.403C189.997 422.565 182.17 388.914 172.142 387.292C171.099 387.282 169.912 388 168.964 388.882C155.771 407.14 155.301 428.529 152.993 446.433L152.846 448.101L151.494 449.162C140.94 457.303 127.833 464.336 110.744 464.603C110.387 464.606 109.83 464.609 109.11 464.595C105.301 464.631 97.0358 463.584 90.8986 461.259C84.741 459.044 80.6804 456.458 83.3738 457.552C84.1364 458.061 96.429 462.572 86.2203 457.945C88.1561 459.158 82.1366 456.62 81.6466 456.307C70.5737 450.33 75.8165 455.17 61.0442 442.004ZM34.3344 391.643C45.0816 413.837 37.4412 397.388 40.6025 401.519C39.1242 398.706 37.766 395.968 36.4025 393.065C36.7037 393.85 37.0034 394.62 37.3105 395.395C37.312 395.398 37.3136 395.401 37.3151 395.405C36.3092 394.164 35.3026 392.881 34.3344 391.643ZM97.037 21.5152C96.4885 21.9329 95.9477 22.3564 95.4002 22.7942L94.9954 22.9953C94.7649 23.1254 94.5307 23.2585 94.2909 23.3957C91.3822 24.5608 88.5689 25.9456 85.8124 27.5386C86.0857 27.2739 86.3619 27.0096 86.6493 26.7435C89.3235 25.2123 92.0766 23.8688 94.8927 22.7385L95.2575 22.5573C95.8374 22.2072 96.4363 21.8566 97.037 21.5152ZM218.323 457.716C222.688 459.048 222.389 458.472 228.355 459.254C227.643 458.741 226.871 458.217 226.164 457.675C221.725 457.212 220.655 457.207 215.991 455.762C216.49 456.073 217.01 456.381 217.51 456.675C218.31 456.858 219.164 457.03 219.943 457.173C221.083 457.939 213.391 455.978 218.307 457.713C218.313 457.714 218.318 457.715 218.323 457.716ZM262.784 449.419C264.948 448.325 272.898 442.458 273.641 441.371C276.88 438.262 255.358 455.16 271.047 442.489C270.916 442.477 270.93 442.347 270.871 442.276C268.002 444.61 265.057 446.73 261.956 448.64C262.315 448.849 262.398 449.226 262.784 449.419ZM92.2156 455.595C93.9399 456.28 99.1328 457.756 103.281 458.122C107.414 458.536 110.385 458.281 107.535 457.997C105.879 457.936 98.0326 457.363 95.1778 456.318C93.3318 455.721 95.4692 456.11 91.8419 454.977C91.95 455.171 91.993 455.359 92.2257 455.598C92.2223 455.597 92.219 455.596 92.2156 455.595ZM84.9368 454.601C88.5072 456.29 92.3287 457.676 96.2074 458.636C93.46 457.606 88.088 455.737 87.9932 455.068C89.0089 455.466 90.0162 455.83 91.0381 456.168C91.7708 456.564 92.4903 456.939 93.2339 457.303C96.588 457.989 94.5897 457.473 100.728 458.84C97.1725 457.177 96.5285 457.287 86.4102 453.757C88.4221 454.154 87.2495 452.327 81.6801 450.313C80.6246 449.937 84.5643 452.301 84.628 452.325C85.0955 452.99 82.6867 451.989 83.2039 452.659C83.434 452.981 85.9951 454.267 86.2924 454.631C86.427 454.825 83.83 453.896 84.9368 454.601ZM79.0463 449.115C80.1668 449.557 77.0256 446.983 74.1399 444.879C69.6859 441.587 76.2167 447.48 79.0463 449.115ZM97.0549 21.5046C97.0489 21.5081 97.043 21.5117 97.037 21.5152C97.0398 21.5131 97.0426 21.511 97.0453 21.5089C97.0485 21.5074 97.0517 21.506 97.0549 21.5046ZM251.476 454.918C254.051 453.737 257.874 451.794 257.43 451.669C258.677 451.084 259.934 450.444 261.174 449.767C261.115 449.695 261.045 449.631 260.987 449.56C257.352 451.678 253.605 453.444 249.692 454.811C250.265 454.862 250.807 454.92 251.476 454.918ZM287.326 426.715C290.671 422.52 287.563 425.804 288.133 424.755C288.729 423.703 291.665 419.987 291.096 420.264C289.293 422.747 287.21 425.432 285.222 427.808C285.987 427.373 286.6 427.124 287.333 426.706C287.331 426.709 287.328 426.712 287.326 426.715ZM9.08899 294.362C9.44158 298.016 8.90873 296.572 10.2452 303.677C10.2444 303.671 10.2437 303.666 10.2429 303.661C9.53903 296.831 8.77715 288.032 7.90834 280.46C7.97041 285.144 8.56778 288.605 9.08899 294.362ZM206.954 452.521C205.466 452.122 211.756 455.28 213.334 455.47C215.785 455.964 209.122 453.308 206.954 452.521ZM14.6201 146.867C15.1798 141.243 11.7464 151.362 10.0714 162.409C9.913 163.363 11.5305 156.351 11.269 158.472C11.2346 158.698 10.4697 162.549 10.4029 163.528C10.3317 164.506 10.7609 163.544 10.5768 165.135C10.2389 167.945 8.8786 174.104 8.80739 176.235C8.79388 176.51 9.73262 172.677 9.7887 172.441C10.625 168.534 10.9064 164.589 11.0155 163.988C11.5868 160.839 11.8391 161.385 12.0689 160.607C12.5055 159.133 12.8956 156.454 12.9457 156.274C14.2176 151.566 11.8991 162.46 11.7922 163.939C11.4129 167.961 12.3011 164.376 10.9166 173.907C10.7844 174.813 9.08622 185.694 11.6012 172.056C8.29678 199.004 14.0164 158.645 15.2094 154.353C15.5531 152.348 14.594 155.291 14.7072 154.054C14.9497 151.255 15.9907 146.478 15.4332 146.807C14.2453 147.492 13.4779 153.833 12.4669 158.101C12.3466 157.606 12.1749 157.391 12.1392 156.512C12.127 157.844 14.5451 147.274 14.622 146.868C14.6213 146.868 14.6207 146.867 14.6201 146.867ZM5.97862 215.244C5.32365 221.331 5.97674 220.911 5.39175 226.516C5.77596 231.46 6.09223 221.726 6.20577 220.599C6.62001 215.459 7.22362 215.589 7.40442 210.308C6.91166 212.091 6.44737 213.549 5.97862 215.244ZM12.7437 162.557C12.3051 166.609 13.6413 159.478 13.7782 159.176C14.9553 156.147 10.9074 177.59 12.7437 162.557ZM115.009 459.791C117.057 459.604 115.73 459.447 117.507 459.13C119.294 458.896 125.365 457.69 125.15 457.486C124.939 457.476 113.94 459.43 124.822 456.761C124.428 456.762 124.53 456.651 124.329 456.607C121.375 457.421 118.331 457.991 115.29 458.287C116.989 458.428 118.754 458.491 120.422 458.466C118.748 459.038 117.719 458.851 117.63 458.867C117.631 458.867 117.631 458.867 117.631 458.868C114.431 459.358 110.396 460.04 115.009 459.791ZM17.7335 344.776C16.838 344.367 18.8967 348.901 19.5262 350.774C20.1481 352.676 20.659 355.426 20.6816 354.333C19.9589 351.106 17.83 344.855 17.7326 344.776C17.7329 344.776 17.7332 344.776 17.7335 344.776ZM5.13735 248.449C5.3954 253.591 5.565 252.776 5.5302 259.017C5.70574 258.77 5.88547 258.523 6.05861 258.276C5.91801 253.327 5.38445 253.689 5.52588 247.902C5.55527 246.961 5.98858 248.972 5.83135 244.733C5.60707 245.971 5.36282 247.212 5.13735 248.449ZM6.80413 273.79C6.39966 267.902 4.64479 263.339 5.98072 274.133C6.19164 275.733 7.13475 278.2 6.80413 273.79ZM66.3409 440.785C73.7786 447.425 65.387 439.834 63.793 437.731C81.0761 453.125 61.5188 436.261 60.9276 433.707C58.8252 431.738 55.1128 428.06 58.7943 432.584C60.401 434.485 59.9698 433.646 60.0675 433.761C63.0922 437.113 62.4131 437.006 66.3409 440.785ZM6.72284 204.643C6.70191 205.022 7.00735 204.453 6.95752 205.658C6.90448 206.877 6.51932 209.548 6.65796 209.833C6.79001 210.114 7.33732 204.692 7.38225 203.008C7.41867 201.333 6.92214 201.224 6.72284 204.643ZM4.44038 243.037C4.62805 248.033 5.56744 239.866 5.59117 238.772C5.59659 237.734 5.59373 236.973 5.5809 236.441C5.54538 234.908 5.41973 235.297 5.26085 236.436C4.96145 238.547 4.60962 243.202 4.44038 243.037ZM49.807 424.309C57.5535 433.659 52.6405 426.231 48.7967 419.715C48.157 418.958 47.506 418.166 46.8806 417.395C49.9457 420.774 54.6751 427.083 44.6921 412.642C49.7059 420.878 45.2233 414.112 45.1808 414.094C43.5335 413.85 52.0419 425.472 49.8005 424.3C49.8027 424.303 49.8048 424.306 49.807 424.309ZM8.67948 188.509C9.25807 183.27 11.1818 169.769 9.71349 175.989C9.30163 180.188 8.9654 184.307 8.67948 188.509ZM181.199 392.112C183.061 395.897 184.546 399.47 186.221 404.464C185.09 399.87 186.14 402.747 186.745 404.265C187.644 406.507 185.786 400.952 185.76 400.923C186.117 400.91 187.679 404.345 184.409 396.411C185.407 398.315 186.278 400.192 187.114 402.176C184.883 395.988 184.393 394.497 182.552 390.668C183.861 394.695 182.036 389.352 178.202 386.158C177.201 385.402 177.953 386.328 178.849 387.751C179.762 389.173 180.736 391.163 181.207 392.126C181.204 392.121 181.202 392.117 181.199 392.112ZM57.5342 434.239C58.4793 435.104 59.3926 435.831 60.3313 436.603C61.2415 437.551 62.1529 438.471 63.1209 439.409C63.1526 439.611 63.1614 439.798 63.217 440.016C64.4489 441.266 64.0771 440.664 64.462 441.012C64.4616 441.013 64.4611 441.013 64.4607 441.013C70.041 445.903 72.4765 447.759 77.1012 451.302C77.3034 450.99 77.5056 450.679 77.7077 450.367C76.5843 449.68 75.5181 448.991 74.4388 448.255C73.7621 448.013 73.081 447.757 72.4008 447.491C71.2414 446.47 70.1866 445.481 69.0967 444.417C68.1313 443.698 66.9542 442.758 66.1613 442.125C62.4413 437.343 72.0909 446.978 72.5843 446.528C72.6926 446.555 62.4567 437.477 61.1602 436.009C60.948 435.812 62.3946 438.53 59.2848 434.562C58.8128 433.913 59.8189 432.669 55.3755 429.403C54.7461 428.923 55.6021 431.684 57.5342 434.239ZM99.4065 461.294C94.5781 459.57 104.482 462.04 109.16 461.882C111.516 461.905 112.417 461.849 109.166 461.594C108.85 461.564 108.495 461.529 108.1 461.486C108.513 461.445 108.869 461.404 109.17 461.365C110.967 461.113 110.812 461.03 109.181 460.806C108.719 460.739 108.14 460.654 107.459 460.535C107.219 460.494 108.638 460.471 109.188 460.43C109.345 460.42 109.431 460.411 109.385 460.406C109.32 460.401 109.254 460.395 109.188 460.389C105.935 460.139 102.184 459.7 102.223 459.263C101.35 459.154 100.531 459.032 99.6616 458.882C103.208 459.959 97.3809 459.216 95.0844 458.841C94.0311 458.707 96.3418 459.406 95.4541 459.302C95.1203 459.289 91.9066 458.175 91.7474 458.248C91.3647 458.443 93.2236 459.652 96.7242 460.772C96.7241 460.773 96.724 460.773 96.7239 460.773C97.6177 460.971 98.4997 461.139 99.4065 461.294ZM11.7195 329.498C12.0391 328.081 11.1168 322.942 13.4802 332.716C13.4884 332.207 13.4935 331.684 13.5036 331.175C13.1397 329.524 12.796 327.915 12.4471 326.216C9.68373 321.429 10.0521 311.746 9.86449 317.951C9.84456 318.63 10.7134 322.575 9.64547 318.716C9.6461 318.721 9.64673 318.726 9.64736 318.732C10.7476 324.171 11.1045 324.86 11.7195 329.498ZM21.7155 365.487C26.8548 377.283 17.0474 348.37 18.3498 353.269C18.3895 353.769 22.5401 366.256 21.7155 365.487ZM2.98882 264.13C3.24109 269.905 3.96374 270.225 4.16521 269.638C4.36953 269.049 3.91858 265.085 3.93739 264.565C3.98609 262.881 4.23355 266.435 4.30516 264.25C4.29953 263.517 4.21176 253.488 4.20041 253.029C3.98919 250.476 3.50942 254.224 3.43179 253.495C3.16908 251.119 3.42202 247.846 3.12389 247.17C2.47865 245.677 3.20154 251.734 3.24384 252.75C3.34027 255.826 2.9829 255.565 2.97992 257.863C2.98169 260.149 3.16247 261.682 3.22622 263.712C3.24804 264.389 2.97789 263.837 2.98882 264.13ZM5.67476 283.07C4.62673 277.092 5.40174 291.789 5.78049 293.495C6.70549 298.546 6.12053 285.939 5.67476 283.07ZM81.6861 452.964C76.6908 450.582 87.7852 457.217 91.5167 458.001C90.8562 457.752 83.3381 453.919 81.6861 452.964ZM47.8468 421.536C50.8718 425.626 47.6373 419.712 45.3663 416.115C43.5669 414.283 44.9052 416.248 46.4162 418.577C47.9316 420.882 45.5553 418.334 47.8468 421.536ZM5.05339 201.519C4.86579 202.62 4.07696 220.208 4.97338 210.131C4.99977 209.378 6.00904 197.077 6.06585 196.151C6.09514 194.26 5.32984 198.721 5.05339 201.519ZM34.7315 400.911C36.3506 403.065 37.6359 405.465 36.9512 402.99C36.9496 402.987 36.9478 402.984 36.9461 402.981C40.3079 408.938 39.5195 409.654 40.2835 410.962C42.9941 415.374 41.1854 410.759 43.0704 413.38C39.0154 407.046 40.6064 408.66 37.9152 403.645C37.289 402.488 34.7289 398.146 34.2238 397.539C33.713 396.955 34.3156 399.577 34.7315 400.911ZM7.93846 176.791C6.87696 182.649 6.93654 188.139 8.17815 180.002C8.80939 176.048 8.60579 173.197 7.93846 176.791ZM271.301 446.691C270.454 447.101 269.586 447.51 268.689 447.923C270.407 446.602 272.146 445.156 273.773 443.702C272.513 444.861 271.149 446.043 269.803 447.142C273.113 444.673 274.832 443.668 271.31 446.684C271.307 446.686 271.304 446.688 271.301 446.691ZM335.72 317.274C336.267 315.508 336.335 311.835 336.204 312.278C335.247 315.612 334.957 319.746 335.72 317.274ZM88.3387 458.184C94.9157 460.7 90.637 458.256 86.7698 456.478C89.1046 457.692 84.6591 456.575 88.3387 458.184ZM322.168 367.122C321.881 367.678 321.591 368.237 321.276 368.857C322.127 366.853 322.323 366.514 322.168 367.122ZM3.9482 204.241C3.76446 205.302 3.12649 212.991 3.168 214.059C3.22352 216.245 4.1367 210.228 4.26691 206.703C4.27822 206.307 4.11152 203.205 3.9468 204.258C3.94727 204.252 3.94773 204.247 3.9482 204.241ZM278.65 440.812C278.635 440.814 278.633 440.803 278.644 440.782C278.644 440.794 278.652 440.799 278.65 440.812ZM339.339 163.658C339.331 163.702 339.32 163.727 339.305 163.724C339.316 163.706 339.325 163.671 339.339 163.658ZM1.70485 258.904C0.85681 261.536 1.62706 267.484 1.87447 262.751C1.8852 262.489 1.72116 259.527 1.70485 258.904Z" fill="#4D1C61"/>
</svg>
