<svg width="104" height="198" viewBox="0 0 104 198" fill="none" xmlns="http://www.w3.org/2000/svg">
<path d="M29.2686 2C36.6827 2.00041 43.2583 13.2375 47.3574 30.5723C47.2008 31.5388 47.0481 32.5103 46.9033 33.4863C40.0083 79.9814 49.1684 120.296 67.46 126.682C67.5026 126.83 67.5467 126.977 67.5889 127.125C68.0788 127.121 68.568 127.129 69.0557 127.146C69.4768 127.245 69.9021 127.329 70.332 127.393C71.2563 127.53 72.1849 127.58 73.1162 127.552C84.7179 129.447 95.0123 137.537 99.2725 149.531C105.465 166.966 96.5619 186.045 79.3877 192.145C71.1448 195.072 62.4952 194.476 55.043 191.139C41.4615 187.914 24.1474 165.091 13.2637 134.448C6.67985 115.911 3.7279 98.1105 4.30469 84.4883C4.09025 80.8033 3.98511 77.0029 4.00098 73.1191C4.09164 50.94 8.08533 31.5193 13.998 20.7246C18.0096 9.10262 23.3742 2.00022 29.2686 2Z" fill="#D1ABDC"/>
<path d="M27.303 171.65C19.9784 160.875 13.9944 148.459 9.49499 135.787C7.15204 129.179 5.21843 122.488 3.7718 115.888C3.26035 113.522 3.57079 113.626 3.46333 112.955C3.18288 111.121 2.66542 110.084 2.44729 108.743C1.40656 102.238 0.743911 96.0804 0.71697 89.5367C0.782386 83.7468 1.48553 85.285 1.79672 84.3821L1.79872 84.6341C1.84073 84.4813 1.87007 84.2631 1.88135 83.936C2.06345 79.4607 1.15491 83.3031 0.831945 81.5563C0.752659 78.7476 0.753029 75.9253 0.823347 73.1062C0.881707 70.7648 0.988062 68.4259 1.13838 66.0987C1.18812 67.3589 1.2485 68.6181 1.31611 69.8818C1.38343 67.6434 1.68365 64.4611 1.83425 68.2045C1.93756 67.3809 2.05717 66.6159 2.17026 65.7708C1.77326 65.527 1.96003 61.568 1.76139 61.1935C1.54927 60.8141 1.45918 63.0483 1.4429 63.0308C1.10386 62.8572 2.27126 53.7692 2.44358 53.1241C2.73772 51.3978 3.04084 52.9754 3.19226 51.5043C3.47591 48.9734 2.24044 50.5046 4.06805 47.2906C3.85774 45.8666 4.09609 45.7796 4.42833 44.0787C4.47245 43.8555 4.19485 43.985 4.20645 43.8843C4.50818 41.2513 4.59187 43.3338 4.61936 43.3235C5.07695 43.1643 5.43673 40.3734 5.61352 39.7929C7.77315 32.6432 9.52076 27.4204 13.2552 20.4624C13.2751 20.4272 13.2958 20.3902 13.3173 20.3517L13.2643 20.4714C13.8276 18.748 15.5547 14.092 16.3944 12.6935C17.1995 11.2711 17.0715 12.1997 17.6018 11.5173C17.6138 9.99403 18.157 8.69537 20.4489 6.54569C20.784 5.31798 20.9587 5.65013 22.5228 4.02801C23.7054 2.68527 26.8179 0.243452 29.2685 0.941587C26.7078 1.09656 26.9073 1.32697 24.5946 2.71494C24.2019 2.93501 22.125 4.4652 20.7661 6.31349C19.363 8.12482 18.4602 10.0024 18.8631 9.85293C19.2579 9.69207 20.7043 7.15731 20.8521 7.11794C21.4983 6.80925 20.7826 8.27376 19.9077 9.3896C20.05 9.05787 20.2359 8.67195 20.4094 8.32192C18.2901 10.7858 20.765 9.6976 18.3933 11.133C18.1034 11.3236 18.017 11.1343 17.6252 11.4968C17.6372 11.6206 18.0851 11.164 17.858 11.6441C17.6228 12.1353 16.8624 12.9048 17.0462 13.165C17.2963 13.5476 18.1823 11.4874 18.2954 11.364C18.2941 11.3613 18.2928 11.3586 18.2916 11.3558C19.2027 10.1659 17.7225 12.8761 17.7118 13.0385C17.5163 13.9986 17.9632 13.5099 17.5494 14.8744C17.3092 15.6509 16.4429 17.5194 16.2073 18.2489C15.9701 18.9653 16.574 17.9436 16.4281 18.4297C16.2816 18.9172 15.9232 19.4546 15.7628 20.0367C15.695 20.2858 15.9012 20.3432 15.8667 20.4618C15.6952 21.0582 15.5774 21.1675 15.4602 21.2293L15.3547 21.4677C15.2155 21.5119 15.0851 21.4963 14.8042 22.062C14.4459 22.7494 13.7434 25.2582 14.6011 23.7123C14.2779 24.4903 13.969 25.2632 13.6714 26.0632C13.9375 25.5902 14.1947 25.1068 14.4777 24.6634C13.7365 26.0664 13.8086 26.8902 13.4762 27.8201C13.1427 28.7663 12.4264 29.4643 12.277 30.5804C11.9509 32.9634 13.6287 27.3648 14.0313 26.7651C14.1656 26.5167 14.0804 27.6462 14.0355 27.7965C13.8107 28.4916 13.2844 29.2187 13.1051 29.7652C12.4756 31.7043 12.4196 32.9915 11.9533 34.8804C10.3487 41.326 9.16749 49.5548 8.60773 55.8873C8.39179 58.2458 7.92269 59.6327 7.85252 60.6981C7.70091 63.1857 8.00362 63.5097 7.91532 65.679C7.83092 67.8836 7.63446 70.7012 7.52798 73.1336C7.47716 74.2644 7.44292 75.3105 7.43475 76.1691C7.41602 78.0423 7.77919 79.7258 7.80397 80.2102C7.87113 81.5198 7.95047 82.8835 8.04474 84.2706L8.04772 84.6468C7.85199 90.2435 8.32978 96.3749 8.90665 100.802C9.2419 103.387 9.11275 104.661 9.20631 105.197C9.63034 107.483 9.81714 106.815 10.1287 108.675C10.302 109.674 10.0646 109.919 10.0797 110.055C10.2228 111.249 10.6369 111.416 10.8428 112.325C12.0447 117.577 13.1683 122.663 14.7611 127.784C14.877 128.156 14.7109 128.174 14.7959 128.411C15.1679 129.426 15.2564 128.869 15.6297 129.936C16.0075 131.007 16.3823 132.097 16.7662 133.204C17.177 134.389 17.5889 135.569 18.0315 136.783C18.1163 137.015 17.9587 137.194 18.1614 137.721C18.3657 138.25 18.7034 138.57 19.0228 139.404C19.853 141.568 20.5168 143.765 21.5096 146.021C21.6736 146.392 22.1093 146.743 22.3621 147.301C23.1452 149.045 24.1651 151.679 24.9086 153.15C27.33 157.968 29.9402 162.206 32.7299 166.418C33.3757 167.392 33.7915 168.406 34.136 168.907C34.9245 170.042 34.502 169.069 35.3237 170.207C40.9047 177.756 47.8481 185.653 55.8237 187.851L56.4241 188.054C58.0099 188.767 59.6599 189.341 61.3485 189.762C65.4613 190.848 70.6772 190.674 74.631 189.816C76.2775 189.466 76.6571 189.656 77.8094 189.288C77.9892 189.228 78.1549 189.167 78.3089 189.107C79.8982 188.458 80.2355 187.974 82.0343 187.014C83.5921 186.162 85.534 185.358 86.98 184.141C88.4089 182.914 88.783 182.049 90.1649 180.44C91.3 179.112 92.8752 177.209 93.7781 175.508C97.8909 167.965 98.4975 158.805 95.584 150.841C92.6041 142.421 85.7743 135.499 77.2385 132.455C75.7421 131.915 74.1552 131.493 72.5184 131.21L73.2303 131.257C72.0971 131.284 70.9404 131.215 69.7918 131.035C69.2524 130.951 68.7267 130.844 68.2167 130.719L68.9207 130.814C68.4847 130.793 68.0507 130.78 67.6197 130.778L64.7778 130.754L64.0763 128.127C64.0443 128.008 64.0031 127.863 63.9558 127.691L66.258 130.125C62.1661 128.654 58.8577 125.844 56.494 122.877C56.0353 122.279 57.0199 122.929 55.4623 121.117C54.6558 120.14 53.3052 118.861 51.8511 116.346C43.4677 101.075 42.2131 83.1209 41.693 66.5712C41.4291 55.3837 41.7012 43.9671 43.0743 32.9185C43.1987 31.918 43.3333 30.9261 43.4744 29.9432L43.5293 31.4775C40.3921 20.3704 37.1488 7.51234 29.6962 3.94195C28.9392 3.72496 29.3057 2.79505 29.941 2.58391C30.4571 2.82501 30.8817 3.1479 31.3079 3.51225C32.2994 2.70092 32.2929 2.73799 34.4443 4.40475C35.7107 5.53786 34.9886 4.28188 35.778 4.79486C36.9377 5.3379 40.7255 9.81451 39.421 9.32006C39.7248 9.5496 40.0033 9.75943 40.2925 9.9901C42.5222 13.5208 44.2194 17.1991 45.7342 20.9809C45.9937 21.6358 46.2296 21.5853 46.49 22.2715C47.1798 24.1022 47.4559 25.635 47.9887 27.5697C48.2741 28.6237 48.5808 28.6965 48.8987 30.0977C48.9068 30.1335 48.9143 30.1683 48.9215 30.2024L48.9439 30.8293C48.7157 32.0453 48.389 32.0714 48.4597 33.7171C48.4633 33.7976 48.4677 33.8819 48.4733 33.9703C49.111 32.8125 47.9872 38.2382 47.8049 40.2175C47.7723 40.5044 47.9293 42.8715 47.7612 44.1123C47.5899 45.349 47.1481 47.2156 47.157 49.1579C47.1617 50.0669 47.4519 50.6264 47.4081 51.6103C47.3779 52.2984 47.0386 53.1055 46.9824 53.97C46.924 54.8238 47.0862 56.7351 47.0803 57.073C47.0545 58.3128 46.8947 56.9391 46.8568 57.7861C46.675 61.8911 46.5767 66.6676 46.8812 70.6936C46.9181 71.1938 47.1318 70.4911 47.1426 70.5574C47.5872 73.9274 47.1959 72.1329 47.0237 73.0552C46.8252 73.9334 47.4647 80.3889 47.9182 80.3763C47.4128 80.6249 47.966 82.0006 48.0271 82.3733C48.2581 83.8041 47.7713 83.5811 48.0936 84.9394C48.2142 85.4454 48.3842 84.4104 48.4494 84.9579C48.6162 86.3348 48.2994 87.5838 48.5614 89.4109C48.6249 89.8474 48.8655 89.9516 48.9975 90.7147C49.1142 91.4642 49.5234 94.7479 49.6696 93.1713C49.7115 95.1577 50.0046 95.5529 50.5474 97.752C50.6916 98.3228 50.5396 99.1521 50.9832 100.3C51.1334 100.684 51.4593 100.584 51.6433 101.189C52.0661 102.56 52.1468 103.965 52.7579 105.668C53.9148 108.88 55.6257 112.056 57.3783 115.044C57.8673 115.861 57.4446 115.862 58.2102 116.985C58.3345 117.173 59.5266 118.299 60.1269 119.031C60.447 119.5 62.313 121.689 62.7961 122.051C63.5175 122.682 63.8557 122.503 64.237 122.858C65.3597 123.828 64.1048 123.64 65.987 123.948C66.3166 124.556 67.2987 124.946 67.4565 125.486C67.6087 125.436 67.752 125.423 67.8946 125.437L68.5208 125.643L68.7271 126.316C68.7965 126.438 68.8492 126.583 68.8944 126.752L67.5774 125.767C68.0101 125.772 68.509 125.864 69.1025 125.873L69.347 125.906C69.4881 125.936 69.6369 125.957 69.7938 125.967C70.0567 125.984 70.3143 125.953 70.5529 125.903C71.4235 125.728 72.0305 125.326 72.2341 126.15C72.3946 126.118 72.7036 126.079 73.0691 126.023L73.3628 126.042C74.4174 126.094 75.8857 126.315 76.2062 126.389C77.5315 126.689 76.755 126.779 77.7437 127.025C77.9163 127.074 77.7975 126.816 78.8907 127.197C79.651 127.342 84.7038 129.669 84.9296 129.95C88.0221 132.131 83.0689 129.056 82.1963 129.009C82.0903 128.898 81.9847 128.789 81.8676 128.676C80.3783 127.931 81.0821 128.714 81.7154 129.108C82.3511 129.498 83.6813 129.943 84.151 130.374C84.3834 130.589 83.9618 130.955 83.1844 130.476C83.972 131.075 82.7134 130.612 82.9832 130.928C83.3184 131.211 86.9337 133.529 87.0931 133.359C86.4402 132.877 85.5913 132.331 84.8939 131.899C84.1805 130.892 88.1054 131.077 90.105 133.698C91.4594 135.585 88.5136 133.321 92.6005 136.691C92.0525 136.09 91.5911 135.575 91.0593 135.057C91.2637 134.719 91.8585 135.85 92.3744 136.209C92.6331 136.38 91.5078 134.876 92.7149 135.953C93.2801 137.33 94.418 137.717 95.8403 139.583C95.374 139.122 94.8975 138.675 94.4093 138.244C96.5355 141.501 90.8175 134.631 95.2917 140.603C94.7532 139.89 94.2065 139.185 93.6033 138.518C93.7289 138.978 92.8329 138.836 92.9845 139.208C93.3768 140.175 94.4193 141.209 95.0667 142.235C95.3497 142.683 95.0343 142.498 95.0583 142.535C95.436 143.147 95.5472 142.888 95.8949 143.423C96.3496 144.089 97.2204 146.238 97.3854 146.57C97.8567 147.418 97.5868 145.759 97.6505 145.826C98.1369 146.288 98.4855 147.54 98.724 147.363C97.5291 144.501 92.5442 136.973 97.4276 143.554C96.6512 141.379 97.6152 141.501 99.2604 144.466C100.521 146.951 99.5055 145.448 99.833 146.873C99.8562 146.973 100.264 148.061 100.605 149.058C100.89 149.873 101.136 150.615 101.248 150.67C100.762 150.669 100.691 151.909 100.009 151.292C99.9158 151.199 99.4989 149.816 99.2852 150.416C99.1811 150.718 98.9811 151.517 98.7093 151.478C98.9577 151.705 99.2282 151.944 99.4798 152.183C100.064 154.232 99.9043 154.586 99.7834 155.77C99.9071 155.702 100.298 154.542 100.38 156.186C100.38 156.27 100.198 156.374 100.194 157.203C100.164 158.883 100.1 159.209 99.4127 158.011C99.9759 161.358 99.3004 162.097 99.077 165.499C99.9105 164.937 99.9948 163.66 99.8388 160.481C100.019 160.341 100.198 160.272 100.378 160.123C99.9257 164.419 99.9967 162.267 100.16 164.735C100.222 165.345 99.5197 168.467 100.227 167.521C100.413 167.3 100.721 165.304 100.867 165.558C100.918 165.608 100.575 168.06 100.456 168.259C99.1398 170.722 100.256 166.068 98.1095 173.088C98.0399 173.278 98.2206 173.428 98.0939 173.808C97.8497 174.521 97.6095 174.422 97.3803 175.05C97.15 175.674 97.0314 176.674 96.2469 177.389C94.8309 178.654 96.7079 174.842 97.6338 173.184C97.4165 172.684 96.1133 175.581 94.1859 178.295C92.3133 181.052 89.7872 183.508 89.503 183.8C87.0435 186.427 91.3436 182.28 91.6219 182.1C91.7658 182.063 92.6086 182.869 93.0291 181.194C93.1459 180.71 91.7229 181.982 92.3471 181.04C92.956 180.095 92.9372 180.643 93.0076 180.595C93.2494 180.426 93.8613 179.385 93.9843 179.282C95.914 177.665 96.7527 178.501 93.5584 180.211C93.0007 181.562 95.41 179.288 94.5543 180.863C93.4791 182.805 91.9616 183.608 91.7663 183.783C89.2466 185.87 92.5285 183.845 89.3761 186.347C87.5773 187.649 91.6151 183.877 87.7265 187.078C84.3079 189.533 86.2903 188.431 86.3773 189.118C86.393 189.273 84.468 190.712 87.1705 188.892C87.1591 188.712 87.1858 188.445 87.2699 188.21C87.9755 187.863 89.506 187.659 89.8563 187.399C91.5474 186.137 91.1682 185.89 92.3918 185.368C91.3964 185.619 92.642 184.836 92.9255 184.36C93.9423 182.588 92.1869 184.55 95.3691 181.379C94.8253 181.701 94.3137 181.965 93.7751 182.236C94.1018 181.826 94.4197 181.406 94.7264 180.98C95.6409 180.693 97.1627 178.255 96.1682 180.711C98.065 178.21 98.4718 176.955 98.4132 176.176C98.399 176.025 98.5762 175.596 98.7947 175.097C98.6447 175.143 98.2597 175.108 98.2547 175.012C98.2162 174.173 99.277 173.351 99.3672 173.817C99.5224 173.469 99.6436 173.193 99.6875 173.095C99.9655 172.476 99.7103 173.802 99.9822 173.317C100.085 173.16 100.665 171.328 100.755 171.316C101.353 171.254 100.203 174.266 102.136 168.109C101.649 167.856 101.05 170.748 100.664 169.858C100.271 168.933 101.442 167.525 100.735 167.026C100.884 166.92 100.999 166.882 101.163 166.795C101.231 164.26 101.808 164.297 102.03 163.527C102.555 162.021 102.174 155.039 101.804 161.295C101.759 160.389 101.707 159.462 101.596 158.57C102.693 158.286 102.484 158.858 101.953 154.452C101.808 153.49 102.233 153.051 101.412 152.263C102.046 152.239 100.882 149.529 100.833 149.263C100.823 149.118 100.83 149.022 100.853 148.97C100.875 148.921 100.91 148.91 100.957 148.933C101.547 149.144 103.146 153.76 102.312 154.625C102.902 155.641 102.37 155.722 102.589 156.923C102.867 158.662 103.003 158.929 102.623 161.017C103.354 163.1 102.37 152.893 103.57 159.049C104.061 161.584 104.309 170.051 99.991 178.309C95.9582 186.689 87.1956 193.317 80.5837 195.512C78.0735 196.44 75.9321 196.914 74.53 197.171C65.9569 198.649 59.2848 197.187 53.448 194.7L54.1414 194.936C48.2433 193.472 43.7574 190.227 39.0903 185.871C37.9262 185.032 31.2518 177.377 33.1592 178.554C33.416 178.749 36.3891 181.845 34.3971 178.717C34.6466 179.489 33.1073 177.94 32.9766 177.818C29.8512 174.965 31.0921 177.039 27.303 171.65ZM22.8131 152.322C26.4052 159.693 24.0507 154.13 25.6969 155.186C25.2093 154.253 24.7458 153.343 24.2785 152.402C24.3465 152.676 24.4135 152.946 24.4825 153.218C24.483 153.219 24.4836 153.22 24.4841 153.221C23.9281 152.929 23.3676 152.622 22.8131 152.322ZM15.7645 22.7736C15.738 23.1071 15.7233 23.4249 15.6912 23.7787C15.2051 24.6835 14.7484 25.6111 14.3126 26.5614C14.2789 26.4133 14.2425 26.27 14.2099 26.1212C14.6956 24.9762 15.2135 23.862 15.7645 22.7736ZM97.9068 172.093C98.7432 170.802 98.1126 170.738 98.9109 168.914C98.3924 169.032 97.8769 169.166 97.3597 169.274C97.0212 170.674 97.0878 171.054 96.4075 172.478C96.6169 172.365 96.8283 172.245 97.036 172.13C97.1005 171.871 97.163 171.593 97.2212 171.341C97.7751 171.092 96.9174 173.54 97.906 172.098C97.9063 172.096 97.9066 172.094 97.9068 172.093ZM99.499 157.1C99.5107 156.3 99.1187 153.135 98.7822 152.771C97.9108 151.518 99.9747 160.037 98.1805 153.818C98.0963 153.868 98.0007 153.859 97.9107 153.88C98.1393 155.017 98.3087 156.159 98.4172 157.321C98.7751 157.216 99.1406 157.216 99.499 157.1ZM38.7613 177.044C39.5058 178.093 43.8939 182.058 42.8324 180.394C42.5162 179.93 40.2474 178.437 39.6137 177.665C39.1931 177.164 39.9214 177.497 38.983 176.605C38.9096 176.742 38.8103 176.874 38.7643 177.046C38.7633 177.045 38.7623 177.045 38.7613 177.044ZM35.7645 176.467C36.6549 177.463 37.5811 178.428 38.5214 179.373C38.1457 178.409 36.7283 177.118 37.064 176.689C37.3278 176.941 37.5886 177.187 37.8518 177.431C37.9404 177.711 38.0358 177.997 38.1303 178.279C39.1082 178.942 38.7258 178.328 40.1099 179.935C39.82 178.438 39.9709 178.055 37.0492 175.826C37.8186 176.068 38.4971 174.704 36.4847 173.79C36.1058 173.615 36.9739 174.91 36.9623 174.938C36.8235 175.357 36.0989 174.836 35.9859 175.255C35.9356 175.448 36.5312 176.176 36.4581 176.431C36.4144 176.548 35.6037 176.042 35.7645 176.467ZM35.6165 173.251C36.0399 173.431 35.6217 172.022 34.8383 171.134C33.6137 169.738 34.9172 172.402 35.6165 173.251ZM15.7672 22.7673C15.7663 22.7694 15.7654 22.7715 15.7645 22.7736C15.7646 22.7724 15.7647 22.7711 15.7648 22.7699C15.7656 22.769 15.7664 22.7682 15.7672 22.7673ZM99.462 161.194C99.2883 160.264 99.2402 158.897 98.9401 159.018C98.9732 158.57 98.9948 158.111 99.0085 157.661C98.918 157.674 98.8277 157.692 98.7382 157.705C98.8179 159.043 98.811 160.376 98.7184 161.705C98.9672 161.544 99.2156 161.393 99.462 161.194ZM96.4147 146.744C95.6724 145.189 95.9507 146.667 95.6034 146.42C95.2668 146.176 94.6756 144.788 94.5105 145.087C94.995 145.945 95.4579 146.865 95.8631 147.777C96.0367 147.408 96.2451 147.106 96.4132 146.741C96.4137 146.742 96.4142 146.743 96.4147 146.744ZM11.3341 120.965C11.5693 122.157 11.124 121.768 12.1405 123.966C12.14 123.964 12.1395 123.962 12.139 123.961C11.7485 121.703 11.2153 118.832 10.3878 116.455C10.4254 118.022 10.9736 119.093 11.3341 120.965ZM95.4095 175.42C95.4124 175.976 96.6273 174.035 96.5933 173.471C96.5688 172.593 95.4352 174.608 95.4095 175.42ZM3.97988 72.4904C3.60044 71.5462 3.18157 71.9702 2.91034 73.1147C2.64425 74.2347 2.53129 76.0458 2.75671 77.8887C2.79339 78.2095 2.99818 75.8023 3.16011 76.5123C3.17484 76.5838 3.17963 77.9017 3.2956 78.2249C3.41071 78.5481 3.65117 78.2004 3.76917 78.7305C3.97274 79.6589 3.71396 81.7826 3.98931 82.4711C4.0247 82.5612 4.3003 81.2396 4.31094 81.1578C4.45859 79.8105 3.99183 78.531 3.98414 78.3225C3.94493 77.2541 4.29151 77.4093 4.36642 77.1378C4.50778 76.627 4.34681 75.7346 4.35777 75.6711C4.6413 74.0516 4.59292 77.7465 4.73731 78.2416C5.10751 79.5736 5.3655 78.3282 5.67366 81.5244C5.70273 81.8293 5.8492 85.4625 6.02749 80.8668C7.24542 89.7989 6.24904 76.3508 6.17513 74.8785C6.09056 74.2029 5.7701 75.2285 5.62159 74.819C5.44114 74.322 5.34069 73.6369 5.21767 73.1241C5.10869 72.6688 4.98103 72.3496 4.7588 72.4153C4.45849 72.5065 4.30651 72.7639 4.23714 73.1201C4.07585 73.9416 4.36188 75.28 4.25938 76.2987C4.04189 76.1485 3.83082 76.0924 3.61693 75.8102C3.83276 76.1367 3.94771 74.17 3.98424 73.1191C3.99523 72.7715 3.99547 72.5241 3.98183 72.4904C3.98118 72.4904 3.98053 72.4904 3.97988 72.4904ZM5.64586 95.4042C5.51297 97.4442 6.12638 97.245 5.96462 99.121C6.70461 100.683 6.31176 97.4883 6.31952 97.1147C6.30871 95.4005 6.92109 95.3945 6.61901 93.6805C6.29468 94.2975 5.96386 94.8079 5.64586 95.4042ZM5.40697 77.7156C5.75335 79.0627 5.69621 76.6407 5.75895 76.5419C6.36857 75.465 6.42507 82.7036 5.40697 77.7156ZM43.305 183.505C43.8066 183.98 43.6819 183.465 44.1948 183.794C44.6907 184.123 46.1374 185.612 46.2115 185.418C46.2759 185.251 43.7033 182.53 46.6616 184.771C46.6291 184.612 46.7106 184.575 46.7226 184.462C45.9313 183.845 45.157 183.19 44.3905 182.503C44.6097 183.109 44.8355 183.728 45.058 184.297C44.4628 184.119 44.4167 183.663 44.3943 183.644C44.3941 183.644 44.3938 183.644 44.3936 183.645C43.547 182.946 42.2166 182.446 43.305 183.505ZM16.0015 137.275C15.2164 137.352 16.589 138.573 16.9187 139.15C17.2466 139.733 17.3273 140.691 17.5031 140.249C17.3077 139.162 16.0891 137.273 16.0006 137.275C16.0009 137.275 16.0012 137.275 16.0015 137.275ZM7.00059 106.311C7.4699 107.956 7.61236 107.65 7.77618 109.732C7.94149 109.618 8.11087 109.504 8.27369 109.391C7.9748 107.777 7.46713 107.985 7.35997 106.07C7.34489 105.757 7.87088 106.349 7.51207 104.98C7.35121 105.419 7.16932 105.873 7.00059 106.311ZM9.29527 114.42C8.84621 112.534 7.06126 111.325 8.49238 114.699C8.70903 115.198 9.64268 115.841 9.29527 114.42ZM31.6129 169.902C33.4819 172.634 31.5095 169.433 31.2179 168.571C35.7916 174.8 30.6252 167.898 30.8962 166.827C30.1927 166.151 28.8423 164.947 29.7789 166.657C30.1824 167.381 30.208 167.003 30.2342 167.046C31.0193 168.34 30.5966 168.381 31.6129 169.902ZM5.39596 91.8994C5.41272 92.0238 5.66024 91.8172 5.72973 92.2114C5.79813 92.6079 5.66901 93.5074 5.83267 93.5895C5.99326 93.6661 6.01842 91.8681 5.88717 91.3253C5.75163 90.7816 5.25089 90.7784 5.39596 91.8994ZM6.05235 104.639C6.49049 106.25 7.00673 103.424 6.95871 103.074C6.47486 99.9528 6.34671 104.679 6.05235 104.639ZM26.0495 164.24C28.5784 167.44 27.7119 164.486 26.8714 162.068C26.6172 161.836 26.3585 161.594 26.1073 161.36C27.403 162.344 29.2291 164.315 25.8523 159.517C27.3116 162.38 25.8373 160.127 25.7949 160.12C24.62 160.384 27.493 164.248 26.0477 164.236C26.0483 164.237 26.0489 164.238 26.0495 164.24ZM5.58869 86.5372C5.5956 86.0336 5.59652 85.2825 5.59124 84.5428L5.59022 84.4135C5.39539 82.6115 5.12594 80.7951 4.84094 82.3054C4.99296 83.0161 5.1492 83.7239 5.30968 84.4298L5.31048 84.5309C5.39466 85.1956 5.48738 85.8729 5.58869 86.5372ZM80.5301 192.717C82.0039 192.448 83.2745 191.878 84.8669 190.981C83.2236 191.397 84.1594 190.847 84.5878 190.496C85.2396 189.964 83.4885 190.936 83.4654 190.902C83.3173 190.523 84.4322 189.952 81.8489 191.183C82.4364 190.771 83.0049 190.341 83.5575 189.896C81.6298 190.867 81.0378 190.805 79.6799 191.005C80.7401 191.172 80.1615 191.322 79.2302 191.701C78.8513 191.854 78.4179 192.039 78.0102 192.28C77.4993 192.578 78.6365 192.78 79.6124 192.777C79.9838 192.778 80.3267 192.753 80.5353 192.715C80.5335 192.716 80.5318 192.716 80.5301 192.717ZM28.141 167.88C28.4859 168.16 28.8517 168.38 29.2049 168.629C29.4606 168.989 29.7116 169.34 29.9726 169.698C29.9031 169.811 29.8239 169.921 29.7636 170.039C30.0645 170.543 30.0752 170.259 30.1863 170.393C30.1858 170.393 30.1852 170.393 30.1847 170.394C31.7711 172.292 32.3496 173.115 33.2336 174.896C33.5284 174.669 33.8232 174.443 34.1179 174.217C33.8278 173.897 33.5358 173.569 33.2466 173.239C32.9457 173.169 32.6521 173.109 32.3545 173.041C32.147 172.573 31.9433 172.105 31.739 171.629C31.4417 171.337 31.1092 170.995 30.8521 170.748C30.5619 168.517 32.5869 172.642 32.9759 172.406C33.2013 172.283 30.5639 168.551 30.0725 168.109C29.9969 168.044 29.8966 169.3 29.3111 167.676C29.2199 167.416 30.5712 166.445 28.4716 165.658C28.1724 165.541 27.7672 166.858 28.141 167.88ZM37.9833 181.552C36.9112 178.96 42.937 186.587 40.5815 183.033C41.7736 183.499 41.5907 183.337 41.0654 182.217C41.0198 182.118 41.689 182.581 41.6518 182.52C41.0413 181.604 40.0226 180.73 40.3393 180.426C40.1205 180.232 39.9152 180.046 39.6959 179.846C40.2447 181.029 38.6818 179.783 37.9257 179.451C37.5759 179.297 38.0745 179.924 37.7762 179.799C37.6658 179.755 36.9932 178.844 36.8537 178.9C36.5435 179.04 36.6815 179.881 37.3139 180.931C37.3137 180.931 37.3135 180.931 37.3132 180.931C37.5307 181.137 37.7587 181.345 37.9833 181.552ZM11.9069 133.001C12.3244 132.388 11.9121 130.686 13.2857 133.768C13.3405 133.573 13.393 133.373 13.4485 133.178C13.2533 132.648 13.0651 132.131 12.8723 131.589C10.6587 130.505 11.58 126.872 11.0157 129.184C10.955 129.438 11.5134 130.673 10.7564 129.519C10.7567 129.52 10.7569 129.522 10.7572 129.524C11.438 131.262 11.7123 131.414 11.9069 133.001ZM16.7523 144.5C19.5534 147.948 15.131 138.779 15.4895 140.455C15.5079 140.62 17.4255 144.575 16.7523 144.5ZM5.41079 111.897C5.78259 113.804 6.47496 113.779 6.66811 113.539C6.86249 113.298 6.34784 112.046 6.35171 111.867C6.36251 111.293 6.68307 112.441 6.70581 111.693C6.70363 111.45 6.30978 108.116 6.26424 107.972C5.95792 107.166 5.6291 108.484 5.52444 108.257C5.17832 107.512 5.28253 106.39 4.95563 106.213C4.25256 105.823 5.23711 107.71 5.31091 108.041C5.52145 109.046 5.1594 109.027 5.23189 109.797C5.30626 110.566 5.52429 111.044 5.63428 111.712C5.67126 111.936 5.39336 111.8 5.41079 111.897ZM8.19748 117.808C7.2208 115.979 7.864 120.867 8.14965 121.401C8.9327 122.957 8.64786 118.684 8.19748 117.808ZM34.9601 175.568C33.5186 174.346 35.9695 177.917 36.9053 178.721C36.8659 178.46 35.4379 175.986 34.9601 175.568ZM25.4716 163.266C26.4418 164.672 25.9975 162.318 25.2936 161.103C24.4084 160.65 24.8881 161.281 25.331 162.09C25.7742 162.896 24.7285 162.176 25.4716 163.266ZM3.41957 90.991C3.38601 91.3662 4.22077 97.216 4.18616 93.8312C4.1634 93.5714 3.92218 89.4702 3.85631 89.1527C3.67845 88.5251 3.40858 90.0415 3.41957 90.991ZM20.8198 156.51C21.6557 157.099 22.0644 157.882 22.169 156.892C22.1685 156.891 22.1679 156.89 22.1673 156.889C23.3751 158.812 22.4403 159.438 22.6973 159.862C23.6054 161.327 23.5218 159.513 24.2746 160.319C22.8486 158.261 23.6688 158.619 22.8117 156.939C22.6169 156.56 21.5488 155.2 21.2576 155.069C20.9641 154.939 20.8175 155.991 20.8198 156.51ZM3.22548 82.7337C3.19604 83.4206 3.28213 84.0823 3.40605 84.5406L3.40534 84.4502C3.52928 85.1913 3.7919 85.4322 3.96287 84.4738L3.96314 84.5082C3.97912 84.3071 3.98655 84.055 3.98353 83.7459C3.97194 82.4056 3.28035 81.5154 3.22548 82.7337ZM101.701 153.867C101.567 154.212 101.432 154.565 101.294 154.925C101.116 154.197 100.916 153.489 100.691 152.779C100.892 153.334 101.078 153.892 101.25 154.461C101.048 153.087 101.243 152.363 101.701 153.864C101.701 153.865 101.701 153.866 101.701 153.867ZM66.0615 124.646C65.6554 124.239 64.3772 124.158 64.4753 124.27C65.2463 125.173 66.6586 125.231 66.0615 124.646ZM35.2963 178.84C36.749 180.652 36.4305 178.815 35.5777 177.69C35.9947 178.477 34.4799 177.797 35.2963 178.84ZM82.1963 129.009C82.3541 129.174 82.5114 129.341 82.6875 129.519C82.068 129.092 81.9776 128.973 82.1963 129.009ZM2.59739 91.9662C2.52966 92.3296 2.62251 94.9394 2.74929 95.2876C2.99773 96.0025 3.37712 93.936 3.15712 92.7567C3.13141 92.6283 2.65645 91.611 2.59762 91.9717C2.59754 91.9699 2.59747 91.9681 2.59739 91.9662ZM101.275 150.668C101.267 150.674 101.258 150.675 101.248 150.67C101.257 150.67 101.266 150.667 101.275 150.668ZM47.9604 80.3524C47.9468 80.3676 47.9327 80.3764 47.9182 80.3763C47.9317 80.3696 47.9454 80.3575 47.9604 80.3524ZM4.01024 110.373C3.26296 111.411 4.15123 113.284 4.28366 111.638C4.28953 111.549 4.04722 110.58 4.01024 110.373Z" fill="#4D1C61"/>
</svg>
